<svg xmlns="http://www.w3.org/2000/svg" viewBox="0 0 143.73 136.01"><defs><style>.cls-1,.cls-2{fill:#c1bc57;}.cls-2{stroke:#000;stroke-miterlimit:10;}</style></defs><title>Asset 1</title><g id="Layer_2" data-name="Layer 2"><g id="Bird"><path class="cls-1" d="M115,76a52.42,52.42,0,0,1,7-3c4.91-1.8,11.39-9,18-33-3.84,1.47-9.66,3.67-16.8,6.18-19.77,7-29.64,11-37.84,11-13.74,0-26.31-3.63-36-9.63a59.3,59.3,0,0,0,94.37,70.28C125.77,107,101.33,90.75,104,84,105.15,81.11,112.31,77.41,115,76Z"/><circle class="cls-1" cx="48.22" cy="47.39" r="33.23"/><path class="cls-1" d="M47.94,0A31.19,31.19,0,0,1,19.59,44.16,31,31,0,0,1,0,37.24,30.56,30.56,0,1,0,47.94,0Z"/><path class="cls-1" d="M47.94,9.12A31.18,31.18,0,0,1,0,46.36,30.56,30.56,0,1,0,47.94,9.12Z"/><path class="cls-2" d="M41.38,34a7.75,7.75,0,0,1,15,1.3"/></g></g></svg>