<?xml version="1.0" encoding="utf-8"?>
<!-- Generator: Adobe Illustrator 21.0.0, SVG Export Plug-In . SVG Version: 6.00 Build 0)  -->
<svg version="1.1" id="svg" xmlns="http://www.w3.org/2000/svg" xmlns:xlink="http://www.w3.org/1999/xlink" x="0px" y="0px"
	 viewBox="0 0 400 364.8" style="enable-background:new 0 0 400 364.8;" xml:space="preserve">
<style type="text/css">
	.st0{fill:#639697;}
	.st1{fill:none;}
</style>
<g id="svgg">
	<path id="path0" class="st0" d="M245.3,13c-1.5,1.1-0.8,9.2,0.8,9.3c8.1,0.3,13.3,0.9,20,2.2c3,0.6,8.1,2.1,8.5,2.5
		c0.2,0.2,0.8,0.4,1.4,0.4c0.6,0,1.1,0.1,1.2,0.3c0.1,0.2,0.8,0.4,1.5,0.5c1.1,0.2,8.6,3.5,10.4,4.6c1.8,1.1,5.3,2.9,5.7,2.9
		c0.3,0,0.5,0.2,0.5,0.3c0,0.3,4.4,3.7,4.9,3.7c0.5,0,2.8,1.8,3.7,2.9c0.5,0.6,1.2,1.1,1.4,1.1c0.3,0,1.1,0.7,1.9,1.6
		c0.8,0.9,1.7,1.8,2.2,2.1c0.8,0.6,5.3,5.6,5.3,6c0,0.1,0.5,0.7,1.1,1.3c0.6,0.6,2,2.5,3.1,4.1c1.1,1.6,2.2,3.2,2.5,3.5
		c0.3,0.3,0.6,0.7,0.6,0.9c0,0.2,0.5,1.1,1.1,1.9c0.6,0.8,1.2,2,1.3,2.7c0.1,0.6,0.6,1.9,1.1,2.7c0.5,0.9,0.9,1.8,0.9,2
		c0,0.2,0.5,1.4,1.1,2.6c1.7,3.6,2.5,5.8,2.8,7.7c0.1,1,0.5,2.9,0.8,4.3c0.3,1.4,0.4,2.6,0.3,2.8c-0.1,0.2,0,1.4,0.2,2.6
		c0.2,1.3,0.4,2.5,0.4,2.8c0,0.3,0,2.3-0.1,4.4c-0.1,3.3-0.3,6.2-0.9,11.3c-0.1,0.7-0.3,1.7-0.5,2.4c-0.2,0.6-0.6,2.1-0.9,3.3
		c-0.9,3.2-1.2,4.2-1.8,6c-1.3,3.5-4.5,10.1-6,12.4c-0.6,0.9-1.3,2.2-1.6,2.8c-0.3,0.6-0.7,1.3-0.9,1.4c-0.2,0.1-1.5,1.7-2.9,3.6
		c-4.2,5.5-10.4,11.6-14.9,14.7c-0.9,0.6-2.1,1.6-2.8,2.3c-0.7,0.7-1.5,1.2-1.7,1.2c-0.2,0-1.6,0.7-3,1.6c-1.4,0.9-2.7,1.6-3,1.6
		c-0.2,0-0.5,0.1-0.6,0.3c-0.2,0.4-8.4,4.1-9.2,4.1c-0.3,0-0.7,0.1-0.8,0.3c-0.2,0.4-3.2,1.4-8.2,3c-2.1,0.6-4.3,1.3-4.9,1.5
		c-2.1,0.6-8.3,1.5-12.2,1.7c-9.4,0.5-9.7,0.7-9.8,5.9c0,4.5,0.4,5.1,3.2,4.7c0.9-0.1,4-0.4,7-0.6c3-0.2,7-0.7,8.9-1.1
		c1.9-0.4,4.6-1,6-1.2c1.4-0.3,4.3-1.1,6.5-1.8c2.1-0.7,4.1-1.3,4.4-1.3c0.3,0,1.1-0.3,1.9-0.7c0.8-0.4,2.1-0.9,2.9-1.1
		c0.8-0.2,2.3-0.9,3.4-1.6c1.1-0.7,2.1-1.2,2.4-1.2s1.1-0.4,1.9-0.9c2.8-1.6,3-1.6,3.3,0.4c0.2,1,0.2,2.1,0.2,2.5
		c-0.2,1-0.2,1.6,0.1,5.3c0.4,5,0.6,7,1,7.6c0.2,0.3,0.5,1.5,0.8,2.7c0.3,1.2,0.6,2.2,0.8,2.3c0.2,0.1,0.3,0.6,0.3,1.1
		c0,3.3,9.3,14.7,14.1,17.2c1,0.5,2.1,1.2,2.4,1.4c0.8,0.7,7.3,3.1,7.8,2.9c1-0.4,1.8,0.8,2.1,3.2c0.5,3.5,0.6,6.6,0.3,7.5
		c-0.2,0.5-0.1,0.8,0.1,0.9c0.4,0.1,0.5,7.7,0.1,8.4c-0.1,0.2-0.2,1.4-0.2,2.8c0,5-0.8,6.8-3.8,7.9c-2.2,0.8-7.1,2.6-9,3.4
		c-0.8,0.3-1.4,0.7-1.4,0.8s-0.6,0.5-1.4,0.7c-4.2,1.5-13.5,6.9-15.9,9.2c-0.4,0.4-0.8,0.6-1,0.6s-0.8,0.5-1.4,1s-1.8,1.5-2.7,2.1
		c-0.9,0.6-2,1.5-2.4,1.9c-0.4,0.5-1.4,1.4-2.1,2.2c-4.3,4.2-6.2,6.2-6.6,6.9c-0.2,0.4-1.7,2.5-3.3,4.6c-1.6,2.1-3.4,4.9-4.1,6.4
		s-1.4,2.8-1.6,3.1c-0.6,1-1.8,3.8-1.8,4.2c0,0.2-0.3,1-0.7,1.7c-0.6,1.1-1,2.2-1.3,4c-0.1,0.3-0.5,1.5-0.9,2.6
		c-2.6,6.8-4.3,20.9-3.1,24.4c0.7,2,0.3,3-1.1,2.9c-0.4,0-1,0-1.3,0.1c-0.3,0.1-1,0.3-1.6,0.4c-0.6,0.1-1.8,0.3-2.7,0.5
		c-0.9,0.2-3.4,0.5-5.5,0.6c-4.8,0.3-4.9,0.3-4.8,4.2c0.1,5.1,1,6.9,3.2,6c0.4-0.1,2-0.2,3.7-0.2c1.7,0,3.2-0.1,3.4-0.2
		c0.4-0.3,0.8-0.3,3.7-0.6c2-0.2,9.1-2.2,9.9-2.8c0.3-0.2,1.3-0.5,2.4-0.6c1.1-0.1,2.2-0.4,2.4-0.6c0.7-0.5,3.6,0,4.7,0.8
		c0.9,0.7,5.1,2.2,6.1,2.2c0.2,0,1.1,0.4,1.8,0.9c0.7,0.5,1.7,0.9,2.2,0.9c1,0,2.6,0.6,3.5,1.3c0.3,0.2,1.2,0.6,2,0.9
		c0.8,0.3,1.9,0.8,2.6,1.1c0.6,0.4,1.7,0.8,2.4,0.9c0.7,0.1,1.5,0.4,1.8,0.5c2.5,1.2,5.9,2.6,6.9,2.8c0.7,0.1,2.2,0.7,3.3,1.3
		c1.1,0.6,2.3,1.1,2.6,1.1c0.3,0,1.4,0.3,2.4,0.7c1,0.4,2.9,1.1,4.3,1.5c1.4,0.5,2.8,1.1,3.2,1.4c2.7,2.3,15.1,3.9,20.6,2.6
		c2.8-0.7,8.3-2.6,9.7-3.5c0.7-0.4,1.6-0.9,2.1-1c0.4-0.1,1-0.5,1.2-0.8c0.2-0.3,0.7-0.5,1.1-0.5s0.8-0.3,1.1-0.7
		c0.2-0.4,0.6-0.7,0.9-0.7c0.5,0,2.8-2.3,2.8-2.9c0-0.2,0.4-0.5,0.9-0.7c2-0.9,8.9-10.6,12.7-17.7c0.7-1.3,1.5-2.7,1.8-3.2
		s0.6-1.2,0.6-1.6c0-1,1.7-4.9,2.2-4.9c0.2,0,0.4-0.6,0.4-1.4c0-0.8,0.3-2.2,0.6-3.2c0.3-1,0.7-2.7,0.9-3.8c0.4-2.8,0.7-4.1,1.1-4.6
		c1.2-1.4,1.4-22.4,0.2-26.1c-0.3-1.1-0.8-2.7-1-3.5c-0.2-0.8-0.5-1.8-0.7-2.3c-0.2-0.4-0.2-1.1-0.1-1.4c0.3-0.9-1-4.5-4.6-11.9
		c-0.4-0.8-1.7-2.8-2.5-3.8c-1.3-1.7-2.3-3.1-2.2-3.1c0.1,0-1.2-1.4-2.9-3.1c-1.7-1.7-3.3-3.1-3.4-3.1c-0.1,0-1-0.7-1.8-1.5
		c-0.9-0.8-1.8-1.5-2-1.5c-0.2,0-1-0.3-1.8-0.7c-3.1-1.5-4.1-1.8-6-2.2c-1.1-0.2-2.7-0.5-3.6-0.7c-2.7-0.6-7.7-0.2-12.1,0.9
		c-2.8,0.7-3.5-1.6-2.1-6.7c0.1-0.5,0.1-2.1,0-3.7c-0.7-6.9-0.7-14.6,0-15c0.6-0.3,5.1-1,8.9-1.3c1.9-0.2,3.7-0.5,9.4-1.8
		c1.1-0.3,2.6-0.7,3.4-1c0.7-0.3,1.8-0.6,2.3-0.6c0.5,0,1-0.2,1.1-0.4c0.1-0.2,0.6-0.4,1.1-0.4s1-0.2,1.1-0.3
		c0.1-0.2,0.7-0.5,1.4-0.6c3.2-0.7,11.6-7.2,11.6-8.9c0-0.2,0.2-0.3,0.3-0.3c0.2,0,0.5-0.4,0.6-0.8c0.1-0.5,0.9-2.1,1.6-3.7
		c0.8-1.6,1.6-3.7,1.8-4.7c0.2-1,0.6-2.7,0.8-3.8c0.5-2.3,0.5-13.3,0-14.2c-0.2-0.3-0.4-1.3-0.6-2.2c-0.1-0.9-0.6-2.9-1-4.4
		c-0.4-1.5-0.8-2.9-0.8-3.1c-0.5-1.9-1.6-4.7-2.6-6.3c-0.6-1.1-1.5-2.7-2-3.5c-0.5-0.9-1.2-1.9-1.5-2.3c-0.3-0.4-0.9-1.2-1.2-1.8
		c-1.4-2.8-6.5-8.6-8.7-9.9c-0.5-0.3-1.6-1.1-2.5-1.8c-0.9-0.7-2-1.5-2.4-1.8c-4.3-2.6-5.9-3.4-7-3.6c-0.8-0.1-2.2-0.5-3.2-0.7
		c-3.8-1-5.5-1-13.6,0.1c-1.5,0.2-1.6,0.2-1.3-0.7c0.4-1.4,2-5.5,2.7-7.1c0.7-1.6,1.9-5.4,2-6.5c0-0.3,0.2-0.8,0.4-1.1
		c0.5-0.7,2-11.2,2.1-15.4c0.1-4.7-0.1-4.3,5-9.3c2.4-2.3,4.3-4.5,4.3-4.9s0.1-0.7,0.3-0.7c0.2,0,0.4-0.3,0.5-0.6
		c0.2-0.7,0.9-1.8,1.6-2.6c0.3-0.3,0.5-0.7,0.5-1s0.2-0.7,0.5-0.9c0.3-0.2,0.6-0.9,0.7-1.5c0.1-0.6,0.6-1.9,1.1-3.1
		c0.5-1.1,0.9-2.4,0.9-2.8c0-0.4,0.1-0.8,0.3-0.9c0.7-0.4,1.2-11.4,0.6-14.4c-0.4-2.4-1.8-7.2-2.4-8c-0.3-0.5-0.8-1.3-1-1.8
		c-0.2-0.5-0.7-1.5-1-2.3c-0.3-0.8-0.8-1.4-0.9-1.4c-0.2,0-0.3-0.2-0.3-0.5c0-0.6-3.4-5.3-4.8-6.8c-2.9-2.9-7.2-6.2-8-6.2
		c-0.2,0-0.8-0.4-1.2-0.9c-0.4-0.5-1.1-0.9-1.4-0.9c-0.3,0-1-0.3-1.5-0.7c-2.4-1.8-7.6-3.8-11.8-4.4c-1-0.2-3.1-0.6-4.6-0.9
		c-3.5-0.8-10.6-0.8-14.1,0c-4.9,1.1-6.6,1.1-8.2,0.2c-0.8-0.4-1.7-0.8-1.9-0.8s-1.1-0.6-2-1.3c-1.2-1-2.9-1.8-6.2-2.9
		c-2.5-0.8-4.7-1.6-4.8-1.8c-0.1-0.1-0.6-0.2-1.1-0.2c-0.5,0-1.4-0.3-2-0.7c-0.6-0.4-1.8-0.9-2.6-1.1c-0.8-0.2-2.1-0.6-2.9-0.8
		c-0.8-0.2-2.9-0.7-4.6-1.1c-1.7-0.4-3.5-0.8-4-1c-0.5-0.2-1.4-0.3-2-0.2c-0.6,0.1-2.2-0.1-3.5-0.4c-1.3-0.3-4.5-0.6-7.1-0.7
		c-2.6-0.1-5.1-0.3-5.5-0.4C246.5,12.5,245.8,12.7,245.3,13 M153.8,26.3c-0.8,0.3-4.2,3.8-4.2,4.4c0,0.2-0.8,1.4-1.8,2.8
		c-1,1.3-1.8,2.5-1.8,2.6c0,0.1-0.4,0.7-0.8,1.3c-1.2,1.7-1.7,2.8-1.7,3.7c0,1.1-1.7,3.3-4.1,5.4c-1.1,1-2.1,1.9-2.1,2.1
		c0,0.2-0.7,1-1.5,1.8s-1.8,2.1-2.2,2.8s-1.1,1.6-1.6,1.8s-1,0.9-1.2,1.4c-0.5,1.2-1.9,3.2-3.2,4.6c-0.5,0.6-1.3,1.8-1.7,2.7
		c-0.4,0.9-1.2,2.3-1.8,3.2c-0.6,0.9-1.2,1.9-1.3,2.4c-0.1,0.5-0.7,1.8-1.3,2.9c-0.6,1.1-1,2.3-1,2.6c0,0.3-0.3,1.1-0.7,1.8
		S119,78.5,119,79s-0.2,1.4-0.5,2.1C116.3,86,115,96,115.2,105c0.2,8,0.3,8.8,0.6,9.6c0.1,0.3,0.3,1.2,0.4,2
		c0.2,1.7,0.9,4.3,1.5,5.7c0.4,1,0.5,1.4,0.8,3.5c0.1,0.8,0.4,1.7,0.7,2c0.2,0.3,0.5,1,0.5,1.6c0,0.6,0.4,1.4,0.8,1.8
		c0.4,0.4,0.7,1.2,0.7,1.7c0,0.5,0.3,1.2,0.5,1.6c0.3,0.4,0.5,0.9,0.5,1.2c0,0.3,0.5,1.2,1.1,2.1c0.6,0.9,1.4,2.4,1.8,3.3
		s1,1.8,1.2,1.9c0.3,0.2,0.8,0.9,1.2,1.6c0.4,0.7,1.5,2.2,2.4,3.2c1,1,1.7,2,1.7,2.2c0,0.7,11.5,11.7,12.3,11.7c0.2,0,1.5,0.9,2.8,2
		c1.3,1.1,2.8,2.3,3.5,2.5c0.6,0.3,1.3,0.7,1.4,0.9c0.1,0.2,0.5,0.4,0.7,0.4c0.3,0,1.5,0.6,2.6,1.4c1.2,0.8,3,1.8,3.9,2.2
		c1,0.4,2.1,1,2.5,1.2c2.8,1.5,6.4,3.2,6.9,3.2c0.3,0,0.9,0.2,1.2,0.4c1.1,0.6,4.1,1.8,4.4,1.8c0.5,0,4.6,1.3,7.1,2.2
		c3.2,1.1,5.8,1.8,8.8,2.2c1.6,0.2,3.4,0.6,4,0.8c0.6,0.2,2,0.5,3.1,0.6c3.1,0.3,3,0,4,8.9c0.5,4.4,0.6,5,0.9,6.6
		c0.1,0.7,0.3,1.9,0.4,2.7c0.9,9.5,1.4,10.7,5.8,11.7c1.7,0.4,1.7,0.5,1.6,49.7c-0.1,45.6-0.2,50.1-1.3,52.9
		c-0.2,0.5-0.4,1.3-0.4,1.8c0,1.1-2.3,6.7-3.1,7.6c-0.4,0.4-0.9,1.4-1.3,2.3c-0.4,0.8-1.2,2-1.8,2.6c-0.6,0.6-1.1,1.2-1.1,1.5
		c0,0.2-0.6,0.7-1.3,1.1c-0.7,0.4-1.7,1.2-2.2,1.9c-0.5,0.7-1.1,1.2-1.3,1.2c-0.2,0-1.2,0.5-2.1,1.1c-1,0.6-2.2,1.2-2.8,1.3
		c-0.6,0.1-1.2,0.4-1.4,0.6c-0.7,0.5-4.6,1.4-6.9,1.6c-1.2,0.1-3.8,0.3-5.8,0.6c-4.2,0.5-3.5,0.5-9.1-0.2c-6.7-0.8-9.5-1.7-12.5-3.8
		c-0.5-0.4-1.4-0.8-1.9-1c-1.4-0.4-8.3-7.1-9-8.8c-0.2-0.5-0.7-1.2-1-1.6c-0.4-0.4-1-1.6-1.4-2.7c-3.3-8.6-3.6-10.8-3.6-20.8
		c0-4.3,0.1-18.9,0.1-32.3c0.1-13.4,0-25.5-0.2-26.8c-0.6-6.1-1.1-9.4-1.5-10.7c-0.2-0.8-0.4-1.8-0.4-2.2c0-0.4-0.2-1-0.5-1.5
		c-0.3-0.4-0.6-1.6-0.8-2.6c-0.1-1-0.9-3.2-1.7-4.8c-0.8-1.6-1.4-3.1-1.4-3.3c0-0.2-0.5-1-1.2-1.8c-0.7-0.8-1.4-1.9-1.7-2.3
		c-0.3-0.5-0.9-1.2-1.4-1.7c-0.5-0.5-0.8-1.1-0.8-1.2c0-0.2-0.2-0.3-0.5-0.3c-0.3,0-1.2-0.6-2-1.3c-0.8-0.7-1.8-1.3-2.2-1.3
		c-0.8,0-1.5-2.2-1.1-3.4c0.4-1,0.2-9.2-0.4-12.5c-0.4-2.3-1.1-5.1-2.4-9.2c-0.3-0.9-0.5-1.9-0.5-2.2c0-0.4-0.2-0.8-0.3-1
		c-0.2-0.2-1.3-2.3-2.6-4.7c-2.7-5.2-10.1-14.9-11.5-14.9c-0.1,0-1-0.9-2.1-2c-1-1.1-2.1-2-2.2-2c-0.2,0-1-0.5-1.9-1.1
		c-3.6-2.5-5.8-3.8-8-4.6c-1.3-0.5-2.8-1.2-3.4-1.4c-1.3-0.6-4.9-1.6-6.5-1.9c-0.6-0.1-1.4-0.3-1.8-0.5c-2.8-1.2-14.9-1.7-20.3-0.8
		c-3.6,0.6-10.3,2.2-10.8,2.7c-0.2,0.2-1,0.4-1.7,0.4c-0.7,0-1.5,0.2-1.7,0.5c-0.4,0.5-4.7,2.7-5.4,2.7c-0.2,0-0.5,0.2-0.8,0.5
		s-0.8,0.5-1.1,0.5s-0.9,0.3-1.1,0.7c-0.3,0.4-0.6,0.7-0.8,0.7c-0.6,0-7.7,6-11.2,9.5c-2.3,2.3-3.7,4-4.4,5.5
		c-0.4,0.9-1.2,2-1.6,2.5c-1.1,1.2-2.4,3.6-2.4,4.5c0,0.4-0.4,1.1-0.9,1.6c-0.5,0.5-1.1,1.7-1.3,2.6s-0.8,2.3-1.2,3.2
		c-0.4,0.8-0.7,1.8-0.7,2.2s-0.3,1.6-0.6,2.7c-1.5,5.3-2,20.4-0.8,23.3c0.3,0.7,0.5,1.9,0.5,2.6c0,0.7,0.2,1.7,0.5,2.2
		c0.3,0.5,0.8,1.8,1.2,3.1c0.3,1.2,0.8,2.5,1,2.8c0.2,0.3,0.3,0.9,0.3,1.1c0,0.3,0.3,0.8,0.7,1.2c0.4,0.4,0.7,0.9,0.7,1.2
		c0,0.3,0.6,1.4,1.4,2.6c0.8,1.1,1.6,2.5,1.8,3c0.5,1.1,2.2,3.3,5.1,6.5c1.2,1.3,2.2,2.6,2.4,2.9c0.6,1.2,7.7,6.5,10.7,8.1
		c0.5,0.2,0.8,0.6,0.8,0.7c0,0.2,0.3,0.3,0.6,0.3c0.4,0,1,0.3,1.6,0.7c0.5,0.4,1.1,0.7,1.4,0.7c0.3,0,1,0.3,1.6,0.7
		c0.6,0.4,2,0.9,3,1.2c1,0.3,2,0.6,2.3,0.8c0.4,0.3,2.1,0.7,6.5,1.7c6.1,1.3,17.1,1.3,22.6-0.1c5-1.3,10.5-3,11.4-3.7
		c0.4-0.3,1-0.5,1.3-0.5c0.6,0,5-2.4,8.1-4.5c1.9-1.2,7.9-6.4,8.3-7.2c0.2-0.3,0.9-1.2,1.6-1.9c2.8-2.9,5.2-5.7,5.5-6.4
		c0.1-0.4,0.8-1.6,1.4-2.6c1.1-1.8,3.1-5.7,4.8-9.7c0.4-1,1-1.7,1.2-1.7c1.6,0,5.1,5.9,6.1,10.2c0.3,1.1,0.8,3.2,1.3,4.7
		c1.1,3.5,1.7,10.6,1.6,20.8c-0.2,65.1-0.3,63.6,4.3,73c0.4,0.9,0.8,1.8,0.8,2.1s0.2,0.7,0.5,1c0.3,0.3,0.9,1.3,1.4,2.3
		c0.9,1.7,6.2,8.2,6.8,8.2c0.1,0,1.2,0.9,2.3,1.9c1.1,1.1,3,2.4,4.2,3c1.2,0.6,2.2,1.2,2.3,1.4c0.1,0.2,1.4,0.6,2.7,1
		c1.4,0.4,3.2,1,4,1.3c1.6,0.7,2.8,1,7.5,1.8c3.5,0.6,16.1,0.8,17.5,0.2c0.5-0.2,1.8-0.5,2.9-0.6c1.1-0.1,2.2-0.4,2.4-0.5
		c0.2-0.1,1.8-0.7,3.6-1.3c3.5-1.1,7.6-3,9.6-4.4c0.6-0.5,1.3-0.9,1.5-0.9c0.2,0,0.4-0.1,0.5-0.3c0.1-0.2,1.1-1,2.2-2
		c2.2-1.8,5.9-6.1,6.6-7.6c0.2-0.5,0.5-1,0.6-1.1c0.7-0.6,1.9-2.8,2.2-3.9c0.2-0.7,0.6-1.6,0.9-1.9c0.3-0.3,0.9-2,1.3-3.6l0.8-3.1
		l0.1-73c0.1-40.1,0.1-73.4,0.2-73.9c0-1.6-0.9-1.9-5.7-1.8c-4.6,0-8.8-0.4-10.5-1.1c-0.6-0.2-1.2-0.3-1.3-0.2
		c-0.2,0.1-0.8,0-1.3-0.2c-0.6-0.2-2.3-0.5-3.8-0.7c-3.8-0.5-8.4-1.6-11.7-2.7c-1.5-0.5-3.6-1.1-4.7-1.3c-1.1-0.2-2.3-0.7-2.7-1
		c-0.4-0.4-1.5-0.9-2.4-1.1c-1.9-0.6-13.3-6.1-14.9-7.3c-0.6-0.4-1.3-0.8-1.4-0.8s-0.7-0.4-1.2-0.9c-0.5-0.5-1.1-0.9-1.3-0.9
		c-0.9,0-13.6-11.5-13.6-12.4c0-0.1-0.7-1.1-1.5-2.2c-1.3-1.7-2.5-3.6-4.2-6.8c-0.9-1.7-1.8-3.7-2.1-4.7c-0.1-0.6-0.6-1.5-0.9-2
		c-0.4-0.5-0.8-1.5-0.9-2.2c-0.1-0.7-0.6-2.3-1.1-3.5c-0.5-1.2-0.8-2.5-0.9-2.9c-0.1-1.5-0.3-3.7-0.7-5.7
		c-1.3-6.9-0.6-16.2,1.9-24.3c0.5-1.6,0.9-3.1,0.9-3.4c0-0.3,0.7-2,1.6-3.8c0.9-1.9,1.8-3.9,2.1-4.7c0.3-0.7,1-1.8,1.5-2.5
		c0.6-0.7,1-1.5,1-1.8c0-0.3,0.5-1.3,1.2-2.2c0.6-0.8,1.6-2.2,2.1-3.1c0.5-0.8,1.8-2.5,2.8-3.7s1.9-2.4,1.9-2.6s0.3-0.6,0.7-0.7
		c0.4-0.1,1.4-1,2.3-1.9c2.2-2.3,3.1-2.9,4.6-3.2c1.9-0.3,4.6-1.8,8.2-4.5c1.7-1.3,3.3-2.3,3.5-2.3c0.6,0,4.2-2.7,4.9-3.6
		c1.2-1.5,0.5-3-2.5-5.6c-1.4-1.3-3.5-3.2-4.5-4.2c-1-1.1-2.1-1.9-2.4-1.9c-0.3,0-1.2-0.7-2-1.7C157,26.4,155.5,25.6,153.8,26.3
		 M319,31c4,0.4,5.6,0.8,8.9,2.3c1,0.5,2.7,1.2,3.7,1.6c1,0.4,2.1,0.9,2.4,1.1c0.3,0.2,1,0.6,1.5,0.8c2.2,1.1,9.2,7.2,10.1,8.8
		c0.3,0.6,0.9,1.4,1.3,1.9c0.8,0.9,1,1.3,3,5.3c2.1,4.1,3,8.2,3,12.9c0,4.5-0.1,6.4-0.4,6.6c-0.2,0.1-0.3,0.6-0.3,1.1
		c0,0.5-0.2,1.3-0.5,1.7c-0.3,0.4-0.6,1.6-0.8,2.5c-0.1,1-0.5,2.1-0.9,2.6c-0.3,0.4-0.9,1.4-1.2,2.2c-0.3,0.7-1.1,1.9-1.7,2.6
		c-0.6,0.7-1.5,1.8-2,2.5c-1.7,2.6-3.9,4-3.5,2.2c0.1-0.3-0.1-1.3-0.4-2.2c-0.3-0.9-0.8-3.2-1.2-5c-0.3-1.9-0.8-3.4-0.9-3.4
		s-0.3-0.5-0.3-1c0-1.3-1.6-6.3-2.3-7.5c-0.3-0.5-1-2.4-1.6-4.2c-0.6-1.8-1.4-3.8-1.8-4.4c-0.4-0.6-1.1-1.8-1.6-2.8
		c-0.5-1-1.2-2-1.5-2.2c-0.4-0.2-0.6-0.5-0.6-0.7c0-0.2-0.6-1.1-1.3-2.1c-0.7-1-1.3-1.9-1.3-2.1c0-0.2-0.4-0.7-0.9-1.1
		c-0.5-0.4-0.9-0.9-0.9-1.1s-0.6-1-1.4-1.8c-0.8-0.8-2.9-3.2-4.8-5.3c-1.9-2.1-3.8-4-4.3-4.3c-0.5-0.2-0.8-0.6-0.8-0.7
		c0-0.1-1.6-1.5-3.5-3.1c-1.9-1.5-3.4-3-3.3-3.2C307,30.8,313.1,30.5,319,31 M263.2,86c-5.3,2.3-6.7,8.2-2.8,12.3
		c4.8,5.2,14.1,0.8,13-6.1C272.8,87.7,267.1,84.3,263.2,86 M243.6,103.1c-0.8,0.6-1.2,21.5-0.4,22.3c0.5,0.5,15.4,0.3,16.8-0.3
		c2-0.8,5-2.9,5.4-3.7c0.2-0.4,0.9-1.4,1.4-2.1c0.5-0.7,1-1.5,1.1-1.8c0.9-7.8-1.8-12.4-8.2-14.2
		C256.3,102.3,244.8,102.2,243.6,103.1 M278.7,132.8c-0.3,0.4-0.6,0.8-0.6,0.9c0,0.9-6,7.9-6.8,7.9c-0.3,0-0.6,0.3-0.8,0.7
		c-0.3,0.6-1.2,1.1-6.9,4.1c-1.1,0.6-3.4,1.4-5.1,2c-1.7,0.5-3.7,1.1-4.3,1.3c-0.6,0.2-2.7,0.4-4.7,0.5c-4.1,0.2-4.7,0.5-4.5,2.3
		c0.2,2.3,3.5,3.2,7,2c0.8-0.3,1.5-0.4,1.7-0.3c0.5,0.3,9.8-2.4,12.8-3.8c1.8-0.8,4.6-2.6,5.7-3.5c0.2-0.2,0.8-0.6,1.3-0.9
		c2.1-1.4,5.7-5,6.3-6.4c0.3-0.7,0.7-1.3,0.9-1.3c0.5-0.2,2.3-3.5,2.3-4.1C282.8,132.7,279.7,131.7,278.7,132.8 M349.4,139.4
		c0.8,0.4,1.7,0.7,1.9,0.7c0.6,0,4.1,1.8,5.5,2.8c0.6,0.5,1.3,0.9,1.6,0.9c0.2,0,0.4,0.1,0.4,0.3c0,0.2,1,1.1,2.2,2.1
		c1.9,1.6,5.6,5.7,6.7,7.5c0.2,0.3,0.7,1.1,1.2,1.8s0.8,1.3,0.8,1.4s0.4,0.8,0.9,1.4c0.5,0.7,0.9,1.3,0.9,1.4c0,0.1,0.8,2,1.8,4.1
		c1.2,2.5,1.9,4.6,2.2,6.2c0.2,1.3,0.5,2.7,0.7,3.1c0.2,0.4,0.4,1.1,0.3,1.4c0,0.3,0,0.9,0.1,1.2c2.1,5.6-0.2,19.7-4,24.1
		c-0.6,0.7-1.1,1.5-1.3,1.8c-1.3,3.6-12.2,6.6-16.8,4.6c-0.7-0.3-1.4-0.5-1.5-0.4c-0.1,0.2-1.8-0.4-4.1-1.5c-0.6-0.3-1.6-0.7-2.2-1
		c-0.6-0.3-1.6-1-2.2-1.6c-0.6-0.6-1.5-1.3-1.9-1.4c-0.9-0.3-5.3-4.7-7.1-7.1c-1.3-1.8-3.9-6-3.9-6.4c0-0.1-0.8-1.9-1.8-4
		c-2.1-4.3-2.5-5.4-2.8-7.4c-0.1-0.8-0.5-2-0.8-2.7c-2.4-5.7-0.6-20.9,3-25.8c0.5-0.6,1-1.6,1.3-2.2
		C332.5,140.1,344.1,136.8,349.4,139.4 M70.8,153.7c5.6,0.9,8.4,1.5,10.2,2.2c1.1,0.4,2.4,0.9,2.9,1.1c1.8,0.6,4.5,1.9,5.4,2.6
		c0.5,0.4,2.3,1.6,4,2.8c3.8,2.5,11.3,10,11.4,11.4c0,0.2,0.5,0.8,1.1,1.5c0.6,0.7,1.1,1.5,1.1,1.7c0,0.2,0.2,0.6,0.5,0.9
		c0.3,0.3,0.5,0.7,0.5,1c0,0.3,0.3,1,0.8,1.6c0.4,0.6,0.8,1.3,0.8,1.5c0,0.2,0.2,0.9,0.5,1.5c2,5.3,3.8,16.3,3.3,20.1
		c-0.1,0.8-0.3,2.5-0.4,3.8c-0.3,3.5-1.3,7.3-2.2,9c-0.5,0.8-0.9,1.9-0.9,2.4c0,0.5-0.2,1.3-0.5,1.8c-0.6,1-1.1,2.1-1.9,4
		c-0.5,1.2-4.9,7.1-6.5,8.7c-0.4,0.5-1.2,1.4-1.7,2.1c-0.5,0.7-1.1,1.3-1.3,1.3c-0.2,0-1.4,0.9-2.6,2c-1.2,1.1-2.3,2-2.5,2
		c-0.2,0-1.1,0.6-2,1.2c-1.8,1.4-2.5,1.8-7.3,4c-1.9,0.9-4.2,1.8-5.1,1.9c-0.9,0.1-2.5,0.6-3.6,0.9c-5.2,1.7-20,1.3-23.7-0.7
		c-0.4-0.2-1.9-0.7-3.2-1.1c-3.2-0.9-7.7-3-9.7-4.6c-1.6-1.3-1.7-1.4-2.9-1.9c-2.4-1.3-11.9-11.6-11.9-13c0-0.2-0.2-0.7-0.5-0.9
		c-2.5-2-6.7-15.8-6.8-22.3c0-2.1,0.5-9.5,0.8-10.5c0.2-0.7,0.3-1.2,0.2-1.2c-0.1,0,0-0.4,0.3-0.8c0.2-0.5,0.6-1.7,0.9-2.8
		c0.9-3.9,1.2-4.9,2-6.5c0.4-0.9,0.9-1.6,1.1-1.6c0.2,0,0.3-0.2,0.3-0.5c0-0.9,1.4-3.7,2.3-4.6c0.5-0.5,1.1-1.3,1.3-1.9
		c0.2-0.6,0.6-1.1,0.8-1.1c0.2,0,0.3-0.2,0.3-0.5c0-0.7,9.1-9.4,9.9-9.4c0.1,0,1-0.5,1.9-1.2s2.7-1.8,4-2.4s2.6-1.4,2.9-1.5
		c0.8-0.4,4.1-1.9,4.6-2c0.2-0.1,1.6-0.3,3.1-0.6c5-1,5.9-1.2,6.1-1.4C59,153.2,68.4,153.3,70.8,153.7 M319.7,159.4
		c-0.3,3,0.1,11.1,0.7,13.3c0.2,0.7,0.4,1.8,0.6,2.5c0.1,0.7,0.5,1.9,0.8,2.7s0.9,2.5,1.3,3.7c0.8,2.4,2.1,5.2,3.2,6.9
		c0.4,0.6,0.7,1.5,0.7,1.9c0,0.4,0.2,0.9,0.4,1c0.2,0.1,0.7,0.9,1.1,1.8s1.3,1.9,2,2.4c0.7,0.5,1.4,1.2,1.5,1.6
		c0.6,1.8,12.9,12.4,14.5,12.5c0.6,0,0.8,0.6,0.3,0.9c-1.6,1-3.5,1.3-13.3,1.7c-8,0.3-15.4-1.5-17.1-4.3c-0.2-0.4-0.7-0.7-1-0.7
		c-0.5,0-1.9-1.5-6.2-6.2c-0.8-0.9-2-2.8-2.6-4.2c-0.6-1.4-1.4-3.2-1.8-4c-1.2-2.8-1.9-8.6-1.9-16.4c0-6.5,1.5-14.1,2.8-14.1
		c0.2,0,0.6-0.2,0.9-0.5c0.2-0.3,0.9-0.6,1.4-0.7c1.6-0.4,6.3-2.8,7.9-4.1c0.2-0.2,1.1-0.7,2-1.3l1.6-1l0.2,0.9
		C319.9,156.1,319.9,157.8,319.7,159.4 M62.6,171.4c-4.5,0.7-7.2,1.4-9.2,2.3c-1.2,0.6-2.5,1.1-2.7,1.1c-0.3,0-1.3,0.7-2.3,1.5
		c-1,0.8-1.9,1.5-2,1.5c-1,0-7.7,7.6-7.7,8.6c0,0.3-0.2,0.5-0.3,0.5c-0.8,0-2.4,4.3-2.8,7.6c-0.1,1.1-0.4,2.5-0.7,3
		c-0.2,0.5-0.4,2.1-0.3,3.8c0.1,1.6,0.1,3.2,0.1,3.7c0,2.1,1.6,7.6,2.8,9.7c0.5,0.9,1.3,2.3,1.7,3.1c2.5,4.6,12.2,11.9,16.6,12.4
		c0.7,0.1,2.2,0.4,3.2,0.7c8.1,2.3,20.6-1.5,27-8.2c6.4-6.7,8.9-12.5,8.9-20.3c0-3.4-0.2-6.7-0.4-7.1c-0.1-0.2-0.4-1.5-0.7-2.9
		s-0.6-2.7-0.9-2.9c-0.2-0.2-0.7-0.9-1-1.5c-2.6-5.1-7.3-10.2-11.7-12.4c-1.1-0.6-2.4-1.3-2.9-1.6c-1-0.7-1.6-0.8-5.8-1.7
		C68.5,171.4,64.3,171.1,62.6,171.4 M70.4,176.2c1.3,0.3,2.6,0.8,2.9,1.1c0.3,0.3,0.8,0.5,1.1,0.5c0.3,0,0.7,0.1,0.9,0.3
		c0.2,0.2,0.9,0.5,1.7,0.7c1.3,0.4,6.8,4.3,6.9,5c0,0.2,0.4,0.7,0.8,1.1c1.2,1.1,2.5,3,2.5,3.6c0,0.3,0.2,0.7,0.4,0.9
		c0.3,0.3,1,1.9,2.4,5.8c0.9,2.5,0.7,9-0.4,12.3c-0.5,1.5-1.1,3.2-1.2,3.8c-0.6,2-1.8,4.3-2.7,5.2c-0.5,0.5-1.6,1.7-2.3,2.6
		c-2.3,2.7-8.1,6.4-11,7c-7.2,1.6-14.8,1-18.8-1.3c-1.2-0.7-2.3-1.3-2.5-1.3s-1-0.7-1.8-1.5c-0.8-0.8-1.6-1.5-1.8-1.5
		c-0.6,0-4.3-4.6-4.3-5.2c0-0.1-0.5-0.9-1.1-1.8c-0.6-0.9-1.3-2.7-1.7-4.1c-0.3-1.4-0.8-2.9-1-3.3c-0.5-0.9-0.4-8.3,0.1-10
		c2-6.5,3.5-9,7.8-13.2c1-1,2-1.8,2.2-1.8c0.2,0,0.8-0.4,1.3-0.9c1.4-1.3,5-3.2,6.1-3.2c0.5,0,1.3-0.2,1.7-0.4
		C60.4,175.6,67,175.3,70.4,176.2 M356.2,249.8c1.5,0.5,3.6,1.6,4.8,2.4c1.1,0.8,2.2,1.4,2.5,1.4c0.2,0,0.6,0.3,0.8,0.7
		c0.2,0.4,0.7,0.8,1.1,0.9c0.4,0.1,0.7,0.5,0.7,0.7c0,0.3,0.5,1.1,1.2,1.8c2.4,2.6,3.5,4,3.7,4.6c0.1,0.4,0.4,0.9,0.7,1.1
		c0.3,0.2,0.5,0.7,0.5,1c0,0.3,0.4,1.1,0.9,1.9c1,1.6,2.8,6.2,2.8,7.1c0,0.3,0.3,1.3,0.7,2.2c1.2,2.7,1.7,5.1,2.1,10.9
		c0.6,7.3-0.1,20.7-1,21.7c-0.2,0.2-0.4,1-0.4,1.7c0,0.7-0.2,1.9-0.5,2.8c-0.3,0.8-1,3.1-1.7,5.1c-0.6,2-1.7,4.9-2.4,6.4
		c-2.4,5.2-3.9,8-4.2,8c-0.2,0-0.3,0.2-0.3,0.5s-0.1,0.5-0.3,0.5c-0.2,0-0.8,0.9-1.5,2.1c-0.9,1.7-3.6,5-5.5,6.7
		c-0.1,0.1-1.3,1.2-2.5,2.4c-2.4,2.3-8,5.9-9.7,6.2c-0.6,0.1-1.1,0.3-1.2,0.5s-0.5,0.3-1,0.3c-0.4,0-1,0.3-1.4,0.6
		c-1.6,1.5-10.9,1.6-14,0.2c-0.9-0.4-1.7-0.7-1.8-0.7c-1.6,0-9.7-5.2-9.7-6.2c0-0.2-0.7-1.1-1.7-2c-0.9-0.9-1.9-2.2-2.2-2.7
		c-0.3-0.6-1-1.8-1.6-2.6c-0.6-0.9-1.1-1.9-1.1-2.2s-0.4-1-0.9-1.6c-0.5-0.6-1-1.6-1.1-2.3c-0.1-0.7-0.5-1.6-0.8-2.1
		c-0.5-0.8-1.2-3.7-2.3-8.8c-1.4-6.7-1.1-25.6,0.4-27.6c0.2-0.2,0.4-1.3,0.5-2.3c0.1-1.1,0.7-3.4,1.3-5.2c0.6-1.8,1.1-3.4,1.1-3.7
		c0-0.4,3.6-7.8,4.7-9.8c0.2-0.3,1-1.8,1.9-3.3c1.4-2.5,3.2-4.9,4.7-6.6c0.3-0.3,1.4-1.6,2.4-2.8c1-1.2,2.3-2.5,2.9-2.9
		c0.6-0.4,1.2-0.8,1.3-0.9c1-1.3,4.5-3.3,10-5.9c0.4-0.2,1.9-0.5,3.3-0.7c1.4-0.2,2.6-0.5,2.7-0.6
		C345.8,248.1,353.7,248.9,356.2,249.8 M318,257.8c-0.1,0.5-0.6,1.3-0.9,1.8c-0.4,0.5-0.7,1.1-0.7,1.4s-0.2,0.5-0.5,0.7
		c-0.3,0.2-1.2,1.5-2.1,2.9c-0.9,1.5-1.7,2.6-1.9,2.6c-0.2,0-0.3,0.2-0.3,0.5c0,0.3-0.6,1.3-1.3,2.3c-0.7,1-1.3,1.9-1.3,2.1
		c0,0.2-0.4,1.2-0.9,2.2c-0.5,1-1.2,2.8-1.5,3.9c-0.4,1.1-0.9,2.3-1.1,2.7c-0.5,0.7-1.7,4.9-2.5,8.6c-0.3,1.1-0.6,2.3-0.8,2.6
		c-0.2,0.3-0.3,1-0.4,1.6c0,0.6-0.2,1.8-0.3,2.7c-1,8.3-0.3,25.9,1.1,29.2c0.3,0.7,0.3,0.7,0.7,2c0.7,2.5,1.7,5.5,2.2,6.3
		c0.3,0.5,0.5,1,0.5,1.3c0,0.7,2.9,6.5,3.2,6.5c0.6,0,0.8,1.6,0.2,2.2c-0.4,0.4-0.6,0.4-0.8,0.1c-0.1-0.3-0.7-0.5-1.4-0.5
		c-1.2,0-3.7-0.9-7.8-2.8c-1.1-0.5-2.4-1.1-2.9-1.3c-0.5-0.2-1.4-0.6-1.9-0.9c-0.6-0.3-1.3-0.5-1.5-0.5s-1.5-0.4-2.6-0.9
		c-1.2-0.5-2.8-1.2-3.8-1.5c-0.9-0.3-2.3-0.9-3.1-1.3c-0.8-0.4-2.7-1.1-4.2-1.6c-1.5-0.5-3.7-1.4-5-2c-1.2-0.6-2.6-1.1-3.1-1.1
		c-3.6,0-4.9-7.2-2.9-15.3c0.7-2.7,1.2-5.3,1.3-6.8c0-0.4,0.3-1.2,0.5-1.8c0.2-0.6,0.4-1.2,0.4-1.4c0-1.2,6.2-14.5,8.2-17.4
		c0.7-1.1,1.3-2,1.3-2.1c0-0.1,0.6-0.7,1.3-1.5c0.7-0.8,1.6-1.9,1.9-2.4c1.2-1.9,10.1-10.7,13-12.8c0.8-0.6,2-1.5,2.9-2.1
		c0.8-0.6,2.4-1.5,3.5-2.1c1.1-0.5,2.6-1.3,3.3-1.8c1.1-0.8,8.3-4.4,9.9-4.9C317.5,256.7,318.3,256.9,318,257.8 M171.7,343.3
		c0.4,1.5-0.2,2-1.4,1.2c-0.6-0.4-0.6-0.5,0-1.3C171,342.1,171.4,342.1,171.7,343.3"/>
	<path id="path1" class="st1" d="M0,182.5V365h200h200V182.5V0H200H0V182.5 M252.4,13c2.6,0.1,5.8,0.5,7.1,0.7
		c1.3,0.3,2.9,0.5,3.5,0.4c0.6-0.1,1.5,0,2,0.2c0.5,0.2,2.3,0.7,4,1c1.7,0.4,3.8,0.8,4.6,1.1c0.8,0.2,2.1,0.6,2.9,0.8
		c0.8,0.2,2,0.7,2.6,1.1c0.6,0.4,1.6,0.7,2,0.7c0.5,0,1,0.1,1.1,0.2c0.1,0.1,2.3,0.9,4.8,1.8c3.3,1.1,5,1.9,6.2,2.9
		c0.9,0.7,1.8,1.3,2,1.3s1.1,0.3,1.9,0.8c1.6,0.9,3.3,0.8,8.2-0.2c3.5-0.7,10.6-0.7,14.1,0c1.5,0.3,3.6,0.7,4.6,0.9
		c4.2,0.6,9.5,2.6,11.8,4.4c0.5,0.4,1.1,0.7,1.5,0.7c0.3,0,1,0.4,1.4,0.9c0.4,0.5,1,0.9,1.2,0.9c0.8,0,5,3.3,8,6.2
		c1.4,1.4,4.8,6.2,4.8,6.8c0,0.3,0.2,0.5,0.3,0.5c0.2,0,0.6,0.6,0.9,1.4c0.3,0.8,0.8,1.8,1,2.3c0.2,0.5,0.7,1.3,1,1.8
		c0.5,0.8,2,5.6,2.4,8c0.5,3.1,0,14-0.6,14.4c-0.2,0.1-0.3,0.5-0.3,0.9c0,0.4-0.4,1.6-0.9,2.8c-0.5,1.1-1,2.5-1.1,3.1
		c-0.1,0.6-0.4,1.2-0.7,1.5c-0.3,0.2-0.5,0.6-0.5,0.9s-0.2,0.7-0.5,1c-0.7,0.7-1.4,1.8-1.6,2.6c-0.1,0.4-0.4,0.6-0.5,0.6
		c-0.2,0-0.3,0.3-0.3,0.7s-1.9,2.6-4.3,4.9c-5,4.9-4.9,4.6-5,9.3c-0.1,4.3-1.5,14.8-2.1,15.4c-0.2,0.3-0.4,0.7-0.4,1.1
		c-0.1,1-1.3,4.9-2,6.5c-0.7,1.6-2.3,5.7-2.7,7.1c-0.2,0.8-0.2,0.9,1.3,0.7c8.1-1.1,9.9-1.1,13.6-0.1c1,0.3,2.4,0.6,3.2,0.7
		c1.2,0.2,2.8,1,7,3.6c0.4,0.2,1.5,1,2.4,1.8c0.9,0.7,2,1.5,2.5,1.8c2.2,1.3,7.3,7.1,8.7,9.9c0.3,0.6,0.9,1.5,1.2,1.8
		c0.3,0.4,1,1.4,1.5,2.3c0.5,0.9,1.4,2.5,2,3.5c0.9,1.6,2.1,4.5,2.6,6.3c0.1,0.2,0.4,1.6,0.8,3.1c0.4,1.5,0.8,3.5,1,4.4
		c0.1,0.9,0.4,1.9,0.6,2.2c0.5,0.9,0.5,11.9,0,14.2c-0.2,1.1-0.6,2.8-0.8,3.8c-0.2,1-1,3.1-1.8,4.7c-0.8,1.6-1.5,3.3-1.6,3.7
		c-0.1,0.5-0.4,0.8-0.6,0.8c-0.2,0-0.3,0.2-0.3,0.3c0,1.8-8.4,8.2-11.6,8.9c-0.6,0.1-1.3,0.4-1.4,0.6c-0.1,0.2-0.6,0.3-1.1,0.3
		s-1,0.2-1.1,0.4c-0.1,0.2-0.6,0.4-1.1,0.4c-0.5,0-1.5,0.3-2.3,0.6c-0.7,0.3-2.3,0.8-3.4,1c-5.7,1.3-7.5,1.7-9.4,1.8
		c-3.8,0.3-8.3,1-8.9,1.3c-0.7,0.3-0.7,8.1,0,15c0.2,1.5,0.2,3.2,0,3.7c-1.4,5.1-0.6,7.4,2.1,6.7c4.5-1.1,9.5-1.5,12.1-0.9
		c0.9,0.2,2.5,0.5,3.6,0.7c1.9,0.4,2.9,0.7,6,2.2c0.8,0.4,1.6,0.7,1.8,0.7c0.2,0,1.1,0.7,2,1.5c0.9,0.8,1.7,1.5,1.8,1.5
		c0.1,0,1.6,1.4,3.4,3.1c1.7,1.7,3.1,3.1,2.9,3.1c-0.2,0,0.8,1.4,2.2,3.1c0.8,1,2.1,3,2.5,3.8c3.5,7.4,4.9,11,4.6,11.9
		c-0.1,0.3-0.1,0.9,0.1,1.4c0.2,0.4,0.5,1.5,0.7,2.3c0.2,0.8,0.7,2.4,1,3.5c1.1,3.7,1,24.7-0.2,26.1c-0.4,0.4-0.7,1.7-1.1,4.6
		c-0.2,1.1-0.6,2.8-0.9,3.8c-0.3,1-0.6,2.4-0.6,3.2c0,0.8-0.2,1.4-0.4,1.4c-0.5,0-2.2,3.8-2.2,4.9c0,0.4-0.3,1.2-0.6,1.6
		s-1.2,1.9-1.8,3.2C373,337.3,366,347,364,347.9c-0.5,0.2-0.9,0.5-0.9,0.7c0,0.5-2.3,2.9-2.8,2.9c-0.3,0-0.7,0.3-0.9,0.7
		c-0.2,0.4-0.7,0.7-1.1,0.7s-0.9,0.2-1.1,0.5c-0.2,0.3-0.8,0.6-1.2,0.8c-0.4,0.1-1.4,0.6-2.1,1c-1.4,0.9-6.8,2.8-9.7,3.5
		c-5.5,1.3-17.9-0.3-20.6-2.6c-0.3-0.3-1.8-0.9-3.2-1.4c-1.4-0.5-3.4-1.1-4.3-1.5c-1-0.4-2-0.7-2.4-0.7c-0.3,0-1.5-0.5-2.6-1.1
		c-1.1-0.6-2.6-1.2-3.3-1.3c-1.1-0.2-4.4-1.5-6.9-2.8c-0.3-0.1-1.1-0.4-1.8-0.5c-0.7-0.1-1.8-0.6-2.4-0.9c-0.6-0.4-1.8-0.9-2.6-1.1
		c-0.8-0.3-1.7-0.7-2-0.9c-0.9-0.7-2.5-1.3-3.5-1.3c-0.5,0-1.5-0.4-2.2-0.9c-0.7-0.5-1.5-0.9-1.8-0.9c-1,0-5.2-1.5-6.1-2.2
		c-1.2-0.8-4.1-1.3-4.7-0.8c-0.3,0.2-1.3,0.5-2.4,0.6c-1.1,0.1-2.2,0.4-2.4,0.6c-0.7,0.6-7.8,2.6-9.9,2.8c-2.9,0.3-3.3,0.3-3.7,0.6
		c-0.2,0.1-1.8,0.2-3.4,0.2c-1.7,0-3.3,0.1-3.7,0.2c-2.2,0.9-3.2-0.9-3.2-6c-0.1-3.9,0-3.9,4.8-4.2c2.1-0.1,4.6-0.4,5.5-0.6
		c0.9-0.2,2.1-0.4,2.7-0.5c0.6-0.1,1.3-0.3,1.6-0.4c0.3-0.1,0.9-0.2,1.3-0.1c1.4,0.1,1.8-0.9,1.1-2.9c-1.3-3.5,0.5-17.6,3.1-24.4
		c0.4-1.1,0.8-2.3,0.9-2.6c0.4-1.8,0.7-2.9,1.3-4c0.4-0.7,0.7-1.4,0.7-1.7c0-0.4,1.2-3.2,1.8-4.2c0.2-0.3,0.9-1.7,1.6-3.1
		s2.5-4.3,4.1-6.4c1.6-2.1,3.1-4.1,3.3-4.6c0.4-0.7,2.3-2.6,6.6-6.9c0.8-0.7,1.7-1.7,2.1-2.2c0.4-0.5,1.5-1.3,2.4-1.9
		c0.9-0.6,2.1-1.5,2.7-2.1s1.2-1,1.4-1s0.6-0.3,1-0.6c2.4-2.3,11.7-7.7,15.9-9.2c0.8-0.3,1.4-0.6,1.4-0.7s0.6-0.5,1.4-0.8
		c1.9-0.8,6.9-2.6,9-3.4c2.9-1,3.8-2.8,3.8-7.9c0-1.4,0.1-2.6,0.2-2.8c0.4-0.6,0.3-8.2-0.1-8.4c-0.2-0.1-0.3-0.4-0.1-0.9
		c0.3-0.9,0.2-4-0.3-7.5c-0.3-2.3-1.1-3.6-2.1-3.2c-0.5,0.2-7-2.2-7.8-2.9c-0.3-0.3-1.4-0.9-2.4-1.4c-4.7-2.5-14.1-13.8-14.1-17.2
		c0-0.5-0.1-1-0.3-1.1c-0.2-0.1-0.5-1.1-0.8-2.3c-0.3-1.2-0.6-2.4-0.8-2.7c-0.6-1.1-1.4-11.1-1.1-12.9c0.1-0.4,0-1.5-0.2-2.5
		c-0.3-2-0.6-2-3.3-0.4c-0.8,0.5-1.7,0.9-1.9,0.9s-1.3,0.6-2.4,1.2c-1.1,0.7-2.6,1.4-3.4,1.6c-0.8,0.2-2.1,0.7-2.9,1.1
		c-0.8,0.4-1.7,0.7-1.9,0.7c-0.3,0-2.2,0.6-4.4,1.3c-2.1,0.7-5.1,1.5-6.5,1.8c-1.4,0.3-4.1,0.8-6,1.2c-1.9,0.4-5.9,0.9-8.9,1.1
		c-3,0.2-6.2,0.5-7,0.6c-2.8,0.4-3.2-0.2-3.2-4.7c0-5.2,0.4-5.5,9.8-5.9c3.9-0.2,10.1-1,12.2-1.7c0.6-0.2,2.8-0.8,4.9-1.5
		c5-1.5,8-2.6,8.2-3c0.1-0.2,0.5-0.3,0.8-0.3c0.7,0,9-3.7,9.2-4.1c0.1-0.2,0.3-0.3,0.6-0.3c0.2,0,1.6-0.7,3-1.6
		c1.4-0.9,2.7-1.6,3-1.6c0.2,0,1-0.6,1.7-1.2c0.7-0.7,2-1.7,2.8-2.3c4.5-3.1,10.8-9.2,14.9-14.7c1.4-1.9,2.7-3.5,2.9-3.6
		c0.2-0.1,0.6-0.7,0.9-1.4c0.3-0.6,1-1.9,1.6-2.8c1.5-2.3,4.8-9,6-12.4c0.7-1.8,1-2.8,1.8-6c0.3-1.2,0.7-2.7,0.9-3.3
		c0.2-0.6,0.4-1.7,0.5-2.4c0.6-5,0.9-7.9,0.9-11.3c0-2.1,0.1-4.1,0.1-4.4c0-0.3-0.2-1.6-0.4-2.8c-0.2-1.3-0.3-2.4-0.2-2.6
		c0.1-0.2,0-1.4-0.3-2.8c-0.3-1.4-0.6-3.3-0.8-4.3c-0.3-1.9-1-4.1-2.8-7.7c-0.6-1.2-1.1-2.4-1.1-2.6c0-0.2-0.4-1.1-0.9-2
		c-0.5-0.9-1-2.1-1.1-2.7c-0.1-0.6-0.7-1.8-1.3-2.7c-0.6-0.8-1.1-1.7-1.1-1.9c0-0.2-0.3-0.6-0.6-0.9c-0.3-0.3-1.4-1.9-2.5-3.5
		c-1.1-1.6-2.5-3.5-3.1-4.1c-0.6-0.6-1.1-1.2-1.1-1.3c0-0.4-4.5-5.4-5.3-6c-0.4-0.3-1.4-1.2-2.2-2.1c-0.8-0.9-1.6-1.6-1.9-1.6
		c-0.3,0-0.9-0.5-1.4-1.1c-0.9-1.1-3.2-2.9-3.7-2.9c-0.4,0-4.9-3.3-4.9-3.7c0-0.2-0.2-0.3-0.5-0.3c-0.4,0-3.9-1.8-5.7-2.9
		c-1.8-1.1-9.3-4.5-10.4-4.6c-0.7-0.1-1.4-0.4-1.5-0.5c-0.1-0.2-0.6-0.3-1.2-0.3c-0.5,0-1.2-0.2-1.4-0.4c-0.4-0.4-5.5-1.9-8.5-2.5
		c-6.6-1.3-11.8-1.9-20-2.2c-1.6-0.1-2.3-8.2-0.8-9.3c0.5-0.3,1.2-0.5,1.6-0.4C247.3,12.7,249.8,12.8,252.4,13 M156.7,26.6
		c0.6,0.4,1.8,1.5,2.5,2.4c0.8,0.9,1.7,1.7,2,1.7c0.3,0,1.4,0.9,2.4,1.9c1,1.1,3,3,4.5,4.2c3,2.6,3.6,4.1,2.5,5.6
		c-0.7,0.9-4.4,3.6-4.9,3.6c-0.2,0-1.7,1-3.5,2.3c-3.6,2.6-6.4,4.1-8.2,4.5c-1.6,0.3-2.4,0.9-4.6,3.2c-0.9,0.9-1.9,1.8-2.3,1.9
		c-0.4,0.1-0.7,0.4-0.7,0.7s-0.9,1.5-1.9,2.6s-2.3,2.9-2.8,3.7c-0.5,0.8-1.4,2.2-2.1,3.1c-0.7,0.8-1.2,1.8-1.2,2.2
		c0,0.3-0.5,1.2-1,1.8c-0.6,0.7-1.2,1.8-1.5,2.5c-0.3,0.7-1.2,2.8-2.1,4.7c-0.9,1.9-1.6,3.6-1.6,3.8c0,0.3-0.4,1.8-0.9,3.4
		c-2.5,8.1-3.3,17.4-1.9,24.3c0.4,1.9,0.7,4.1,0.7,5.7c0,0.4,0.4,1.7,0.9,2.9c0.5,1.2,0.9,2.8,1.1,3.5c0.1,0.7,0.6,1.7,0.9,2.2
		c0.4,0.5,0.8,1.4,0.9,2c0.2,1,1.1,3,2.1,4.7c1.7,3.2,2.9,5,4.2,6.8c0.8,1.1,1.5,2.1,1.5,2.2c0,0.8,12.7,12.4,13.6,12.4
		c0.3,0,0.9,0.4,1.3,0.9c0.5,0.5,1,0.9,1.2,0.9s0.8,0.4,1.4,0.8c1.6,1.2,13,6.7,14.9,7.3c0.9,0.3,2,0.8,2.4,1.1
		c0.4,0.4,1.6,0.8,2.7,1c1.1,0.2,3.2,0.8,4.7,1.3c3.3,1.1,7.9,2.2,11.7,2.7c1.5,0.2,3.2,0.5,3.8,0.7c0.6,0.2,1.2,0.3,1.3,0.2
		c0.2-0.1,0.8,0,1.3,0.2c1.7,0.7,5.9,1.1,10.5,1.1c4.8,0,5.7,0.3,5.7,1.8c0,0.5-0.1,33.7-0.2,73.9l-0.1,73l-0.8,3.1
		c-0.4,1.7-1,3.3-1.3,3.6c-0.3,0.3-0.7,1.2-0.9,1.9c-0.3,1.2-1.6,3.3-2.2,3.9c-0.1,0.1-0.4,0.6-0.6,1.1c-0.7,1.5-4.4,5.8-6.6,7.6
		c-1.1,0.9-2.1,1.8-2.2,2c-0.1,0.1-0.3,0.3-0.5,0.3c-0.2,0-0.9,0.4-1.5,0.9c-1.9,1.4-6.1,3.4-9.6,4.4c-1.8,0.6-3.4,1.1-3.6,1.3
		c-0.2,0.1-1.3,0.4-2.4,0.5c-1.1,0.1-2.4,0.4-2.9,0.6c-3.4,1.3-20.5-0.1-25-2.1c-0.8-0.3-2.6-0.9-4-1.3c-1.4-0.4-2.6-0.8-2.7-1
		c-0.1-0.2-1.2-0.8-2.3-1.4c-1.2-0.6-3.1-1.9-4.2-3c-1.1-1.1-2.2-1.9-2.3-1.9c-0.5,0-5.9-6.5-6.8-8.2c-0.5-1-1.1-2-1.4-2.3
		c-0.3-0.3-0.5-0.7-0.5-1s-0.4-1.2-0.8-2.1c-4.6-9.3-4.5-7.9-4.3-73c0-10.2-0.5-17.3-1.6-20.8c-0.5-1.5-1.1-3.6-1.3-4.7
		c-1-4.3-4.5-10.2-6.1-10.2c-0.3,0-0.8,0.8-1.2,1.7c-1.7,4-3.7,8-4.8,9.7c-0.7,1-1.3,2.2-1.4,2.6c-0.2,0.7-2.6,3.5-5.5,6.4
		c-0.7,0.7-1.4,1.5-1.6,1.9c-0.4,0.8-6.5,6-8.3,7.2c-3.2,2.1-7.6,4.5-8.1,4.5c-0.3,0-0.9,0.2-1.3,0.5c-0.9,0.7-6.3,2.4-11.4,3.7
		c-5.5,1.4-16.5,1.4-22.6,0.1c-4.4-1-6.1-1.4-6.5-1.7c-0.2-0.2-1.3-0.6-2.3-0.8c-1-0.3-2.3-0.8-3-1.2c-0.6-0.4-1.4-0.7-1.6-0.7
		c-0.3,0-0.9-0.3-1.4-0.7c-0.5-0.4-1.2-0.7-1.6-0.7c-0.4,0-0.6-0.1-0.6-0.3c0-0.2-0.4-0.5-0.8-0.7c-3.1-1.6-10.1-7-10.7-8.1
		c-0.2-0.3-1.3-1.6-2.4-2.9c-3-3.3-4.7-5.5-5.1-6.5c-0.2-0.5-1-1.8-1.8-3c-0.8-1.1-1.4-2.3-1.4-2.6c0-0.3-0.3-0.8-0.7-1.2
		c-0.4-0.4-0.7-0.9-0.7-1.2c0-0.3-0.2-0.8-0.3-1.1c-0.2-0.3-0.6-1.6-1-2.8c-0.3-1.2-0.9-2.6-1.2-3.1c-0.3-0.5-0.5-1.5-0.5-2.2
		c0-0.7-0.2-1.9-0.5-2.6c-1.2-2.9-0.7-18.1,0.8-23.3c0.3-1.1,0.6-2.3,0.6-2.7s0.3-1.4,0.7-2.2c0.4-0.8,0.9-2.3,1.2-3.2
		s0.8-2.1,1.3-2.6c0.5-0.5,0.9-1.3,0.9-1.6c0-0.9,1.3-3.3,2.4-4.5c0.5-0.5,1.2-1.6,1.6-2.5c0.7-1.5,2.1-3.2,4.4-5.5
		c3.4-3.5,10.5-9.5,11.2-9.5c0.2,0,0.5-0.3,0.8-0.7c0.3-0.4,0.8-0.7,1.1-0.7s0.9-0.2,1.1-0.5s0.6-0.5,0.8-0.5c0.6,0,4.9-2.1,5.4-2.7
		c0.2-0.3,1-0.5,1.7-0.5c0.7,0,1.5-0.2,1.7-0.4c0.6-0.5,7.2-2.1,10.8-2.7c5.3-0.9,17.4-0.4,20.3,0.8c0.4,0.2,1.2,0.4,1.8,0.5
		c1.6,0.2,5.2,1.3,6.5,1.9c0.6,0.3,2.2,0.9,3.4,1.4c2.2,0.9,4.3,2.1,8,4.6c0.8,0.6,1.7,1.1,1.9,1.1c0.2,0,1.2,0.9,2.2,2
		c1,1.1,2,2,2.1,2c1.4,0,8.8,9.6,11.5,14.9c1.2,2.4,2.4,4.5,2.6,4.7c0.2,0.2,0.3,0.6,0.3,1c0,0.4,0.2,1.3,0.5,2.2
		c1.3,4.1,2,6.9,2.4,9.2c0.5,3.3,0.8,11.4,0.4,12.5c-0.5,1.2,0.3,3.4,1.1,3.4c0.4,0,1.4,0.6,2.2,1.3c0.8,0.7,1.8,1.3,2,1.3
		c0.3,0,0.5,0.1,0.5,0.3c0,0.2,0.4,0.7,0.8,1.2c0.5,0.5,1.1,1.3,1.4,1.7c0.3,0.5,1.1,1.5,1.7,2.3c0.7,0.8,1.2,1.6,1.2,1.8
		c0,0.2,0.6,1.6,1.4,3.3c0.8,1.6,1.5,3.8,1.7,4.8c0.1,1,0.5,2.2,0.8,2.6c0.3,0.4,0.5,1.1,0.5,1.5c0,0.4,0.2,1.3,0.4,2.2
		c0.4,1.4,0.8,4.6,1.5,10.7c0.1,1.3,0.2,13.4,0.2,26.8c-0.1,13.4-0.1,28-0.1,32.3c0,10,0.3,12.1,3.6,20.8c0.4,1.1,1,2.3,1.4,2.7
		c0.4,0.4,0.8,1.1,1,1.6c0.7,1.7,7.5,8.3,9,8.8c0.5,0.1,1.3,0.6,1.9,1c3,2.1,5.8,2.9,12.5,3.8c5.6,0.7,4.9,0.7,9.1,0.2
		c2-0.2,4.6-0.5,5.8-0.6c2.3-0.2,6.2-1.1,6.9-1.6c0.2-0.2,0.9-0.4,1.4-0.6c0.6-0.1,1.8-0.7,2.8-1.3c1-0.6,1.9-1.1,2.1-1.1
		c0.2,0,0.8-0.5,1.3-1.2c0.5-0.7,1.5-1.5,2.2-1.9c0.7-0.4,1.3-0.9,1.3-1.1c0-0.2,0.5-0.9,1.1-1.5c0.6-0.6,1.4-1.7,1.8-2.6
		c0.4-0.8,1-1.8,1.3-2.3c0.8-0.9,3.1-6.6,3.1-7.6c0-0.4,0.2-1.2,0.4-1.8c1.1-2.8,1.2-7.3,1.3-52.9c0.1-49.1,0.1-49.3-1.6-49.7
		c-4.3-0.9-4.9-2.1-5.8-11.7c-0.1-0.8-0.2-2-0.4-2.7c-0.3-1.6-0.4-2.2-0.9-6.6c-1-8.9-0.9-8.6-4-8.9c-1.1-0.1-2.5-0.4-3.1-0.6
		c-0.6-0.2-2.4-0.6-4-0.8c-3-0.4-5.6-1.1-8.8-2.2c-2.5-0.9-6.7-2.2-7.1-2.2c-0.4,0-3.3-1.2-4.4-1.8c-0.3-0.2-0.9-0.4-1.2-0.4
		c-0.5,0-4.1-1.7-6.9-3.2c-0.4-0.2-1.5-0.8-2.5-1.2c-1-0.4-2.8-1.4-3.9-2.2c-1.2-0.8-2.4-1.4-2.6-1.4c-0.3,0-0.6-0.2-0.7-0.4
		c-0.1-0.2-0.8-0.6-1.4-0.9c-0.6-0.3-2.2-1.4-3.5-2.5c-1.3-1.1-2.5-2-2.8-2c-0.8,0-12.3-11-12.3-11.7c0-0.2-0.8-1.2-1.7-2.2
		c-1-1-2-2.4-2.4-3.2c-0.4-0.7-0.9-1.5-1.2-1.6c-0.3-0.2-0.8-1-1.2-1.9s-1.2-2.4-1.8-3.3c-0.6-0.9-1.1-1.8-1.1-2.1
		c0-0.3-0.2-0.8-0.5-1.2c-0.3-0.4-0.5-1.1-0.5-1.6c0-0.5-0.3-1.2-0.7-1.7c-0.4-0.4-0.8-1.3-0.8-1.8c0-0.6-0.3-1.3-0.5-1.6
		c-0.2-0.3-0.5-1.2-0.7-2c-0.3-2.1-0.4-2.4-0.8-3.5c-0.6-1.3-1.3-4-1.5-5.7c-0.1-0.8-0.3-1.7-0.4-2c-0.3-0.7-0.4-1.6-0.6-9.6
		c-0.2-9,1.1-19.1,3.2-23.9c0.3-0.7,0.5-1.6,0.5-2.1s0.3-1.5,0.7-2.3s0.7-1.6,0.7-1.8c0-0.3,0.5-1.4,1-2.6c0.6-1.1,1.2-2.5,1.3-2.9
		c0.1-0.5,0.7-1.6,1.3-2.4c0.6-0.9,1.4-2.3,1.8-3.2c0.4-0.9,1.1-2.1,1.7-2.7c1.3-1.4,2.7-3.4,3.2-4.6c0.2-0.5,0.8-1.2,1.2-1.4
		s1.1-1,1.6-1.8s1.4-2,2.2-2.8s1.5-1.6,1.5-1.8c0-0.2,0.9-1.2,2.1-2.1c2.5-2.1,4.1-4.3,4.1-5.4c0-0.9,0.5-2,1.7-3.7
		c0.5-0.6,0.8-1.2,0.8-1.3c0-0.1,0.8-1.3,1.8-2.6c1-1.3,1.8-2.6,1.8-2.8c0-0.5,3.4-4,4.2-4.4C155,25.8,155.5,25.9,156.7,26.6
		 M308.6,31c-2.6,0.3-2.5,0.8,1.4,3.9c1.9,1.5,3.5,2.9,3.5,3.1c0,0.1,0.4,0.5,0.8,0.7c0.5,0.2,2.4,2.2,4.3,4.3
		c1.9,2.1,4.1,4.5,4.8,5.3c0.8,0.8,1.4,1.6,1.4,1.8s0.4,0.7,0.9,1.1c0.5,0.4,0.9,0.9,0.9,1.1c0,0.2,0.6,1.2,1.3,2.1
		c0.7,1,1.3,1.9,1.3,2.1c0,0.2,0.3,0.5,0.6,0.7c0.4,0.2,1,1.2,1.5,2.2c0.5,1,1.2,2.2,1.6,2.8c0.4,0.6,1.2,2.5,1.8,4.4
		c0.6,1.8,1.3,3.7,1.6,4.2c0.8,1.1,2.3,6.2,2.3,7.5c0,0.6,0.1,1,0.3,1s0.6,1.5,0.9,3.4c0.3,1.9,0.9,4.1,1.2,5
		c0.3,0.9,0.5,1.9,0.4,2.2c-0.4,1.8,1.9,0.4,3.5-2.2c0.5-0.7,1.3-1.8,2-2.5c0.6-0.7,1.4-1.8,1.7-2.6c0.3-0.7,0.9-1.7,1.2-2.2
		c0.3-0.4,0.7-1.6,0.9-2.6c0.1-1,0.5-2.1,0.8-2.5c0.3-0.4,0.5-1.2,0.5-1.7c0-0.5,0.1-1,0.3-1.1c0.3-0.2,0.4-2.1,0.4-6.6
		c0-4.6-1-8.8-3-12.9c-2-4-2.2-4.4-3-5.3c-0.4-0.5-1-1.4-1.3-1.9c-0.8-1.6-7.8-7.7-10.1-8.8c-0.5-0.2-1.2-0.6-1.5-0.8
		c-0.3-0.2-1.4-0.7-2.4-1.1c-1-0.4-2.7-1.2-3.7-1.6C322.9,31,315.7,30.1,308.6,31 M268.7,86.2c3.9,2.1,5.6,5.5,4.4,9
		c-3,8.8-16.1,6.1-14.8-3.1C259,87.3,264.7,84.1,268.7,86.2 M259.6,103.3c6.5,1.9,9.2,6.5,8.2,14.2c0,0.3-0.5,1.1-1.1,1.8
		c-0.5,0.7-1.2,1.6-1.4,2.1c-0.5,0.9-3.4,2.9-5.4,3.7c-1.4,0.5-16.2,0.8-16.8,0.3c-0.8-0.8-0.4-21.7,0.4-22.3
		C244.8,102.2,256.3,102.3,259.6,103.3 M281.7,132.8c0.7,0.4,1.2,1,1.2,1.3c0,0.6-1.8,3.9-2.3,4.1c-0.2,0.1-0.5,0.7-0.9,1.3
		c-0.7,1.4-4.2,5-6.3,6.4c-0.5,0.3-1,0.7-1.3,0.9c-1.1,0.9-3.9,2.7-5.7,3.5c-2.9,1.4-12.2,4.1-12.8,3.8c-0.2-0.1-0.9,0-1.7,0.3
		c-3.5,1.2-6.8,0.2-7-2c-0.1-1.8,0.5-2,4.5-2.3c2-0.1,4.1-0.3,4.7-0.5c0.6-0.2,2.5-0.8,4.3-1.3c1.7-0.5,4-1.4,5.1-2
		c5.7-3,6.6-3.5,6.9-4.1c0.2-0.4,0.6-0.7,0.8-0.7c0.8,0,6.8-7,6.8-7.9C278.1,132.3,280,131.8,281.7,132.8 M340.3,138.7
		c-3,0.5-8.9,4.1-9.7,6.1c-0.2,0.6-0.8,1.6-1.3,2.2c-3.6,4.9-5.3,20.1-3,25.8c0.3,0.7,0.6,1.9,0.8,2.7c0.4,2,0.8,3.1,2.8,7.4
		c1,2.1,1.8,3.8,1.8,4c0,0.4,2.6,4.6,3.9,6.4c1.8,2.5,6.2,6.9,7.1,7.1c0.4,0.1,1.3,0.8,1.9,1.4c0.6,0.6,1.6,1.4,2.2,1.6
		c0.6,0.3,1.6,0.7,2.2,1c2.3,1,3.9,1.6,4.1,1.5c0.1-0.1,0.8,0.1,1.5,0.4c4.6,1.9,15.5-1.1,16.8-4.6c0.1-0.3,0.7-1.1,1.3-1.8
		c3.8-4.4,6.2-18.5,4-24.1c-0.1-0.3-0.2-0.8-0.1-1.2c0-0.3-0.1-1-0.3-1.4c-0.2-0.4-0.6-1.8-0.7-3.1c-0.2-1.5-1-3.6-2.2-6.2
		c-1-2.1-1.8-3.9-1.8-4.1c0-0.1-0.4-0.8-0.9-1.4c-0.5-0.7-0.9-1.3-0.9-1.4s-0.4-0.8-0.8-1.4s-1-1.4-1.2-1.8
		c-1.1-1.8-4.8-5.9-6.7-7.5c-1.2-1-2.2-1.9-2.2-2.1c0-0.1-0.2-0.3-0.4-0.3c-0.2,0-0.9-0.4-1.6-0.9c-1.3-1-4.9-2.8-5.5-2.8
		c-0.2,0-1.1-0.3-1.9-0.7C347.7,138.6,343.3,138.2,340.3,138.7 M58.7,153.5c-0.2,0.2-1.1,0.4-6.1,1.4c-1.5,0.3-2.9,0.6-3.1,0.6
		c-0.4,0.1-3.8,1.6-4.6,2c-0.3,0.2-1.6,0.8-2.9,1.5s-3.1,1.8-4,2.4s-1.7,1.2-1.9,1.2c-0.7,0-9.9,8.7-9.9,9.4c0,0.3-0.1,0.5-0.3,0.5
		c-0.2,0-0.5,0.5-0.8,1.1c-0.2,0.6-0.8,1.4-1.3,1.9c-0.9,0.9-2.3,3.6-2.3,4.6c0,0.3-0.1,0.5-0.3,0.5c-0.2,0-0.7,0.7-1.1,1.6
		c-0.8,1.6-1.1,2.5-2,6.5c-0.3,1.1-0.7,2.4-0.9,2.8c-0.2,0.5-0.4,0.8-0.3,0.8c0.1,0,0,0.5-0.2,1.2c-0.3,1-0.8,8.4-0.8,10.5
		c0.1,6.4,4.4,20.2,6.8,22.3c0.3,0.2,0.5,0.7,0.5,0.9c0,1.4,9.5,11.7,11.9,13c1.1,0.6,1.3,0.7,2.9,1.9c2.1,1.6,6.5,3.8,9.7,4.6
		c1.3,0.4,2.8,0.8,3.2,1.1c3.7,2,18.5,2.5,23.7,0.7c1.1-0.4,2.7-0.8,3.6-0.9c0.9-0.1,3.2-1,5.1-1.9c4.7-2.2,5.4-2.6,7.3-4
		c0.9-0.7,1.8-1.2,2-1.2c0.2,0,1.4-0.9,2.5-2c1.2-1.1,2.3-2,2.6-2c0.2,0,0.8-0.6,1.3-1.3c0.5-0.7,1.2-1.6,1.7-2.1
		c1.6-1.6,6-7.5,6.5-8.7c0.8-1.9,1.4-3,1.9-4c0.3-0.5,0.5-1.3,0.5-1.8c0-0.5,0.4-1.6,0.9-2.4c1-1.7,1.9-5.5,2.2-9
		c0.1-1.3,0.3-3,0.4-3.8c0.5-3.8-1.3-14.8-3.3-20.1c-0.2-0.6-0.4-1.3-0.5-1.5c0-0.2-0.4-0.9-0.8-1.5c-0.4-0.6-0.8-1.3-0.8-1.6
		c0-0.3-0.2-0.7-0.5-1c-0.3-0.3-0.5-0.6-0.5-0.9c0-0.2-0.5-1-1.1-1.7c-0.6-0.7-1.1-1.4-1.1-1.5c-0.1-1.4-7.6-8.9-11.4-11.4
		c-1.7-1.1-3.5-2.4-4-2.8c-0.9-0.7-3.6-2-5.4-2.6c-0.5-0.2-1.8-0.7-2.9-1.1c-1.8-0.7-4.7-1.3-10.2-2.2
		C68.4,153.3,59,153.2,58.7,153.5 M317.9,155.7c-0.9,0.5-1.8,1.1-2,1.3c-1.6,1.3-6.3,3.7-7.9,4.1c-0.5,0.1-1.2,0.5-1.4,0.7
		c-0.2,0.3-0.6,0.5-0.9,0.5c-1.3,0-2.8,7.6-2.8,14.1c0,7.8,0.6,13.6,1.9,16.4c3.1,6.9,2.7,6.3,8,12.1c1.1,1.2,2.3,2.3,2.6,2.3
		c0.3,0,0.7,0.3,1,0.7c1.7,2.7,9.2,4.6,17.1,4.3c9.7-0.4,11.7-0.6,13.3-1.7c0.5-0.3,0.3-0.9-0.3-0.9c-1.6-0.1-13.8-10.7-14.5-12.5
		c-0.1-0.4-0.8-1.1-1.5-1.6c-0.7-0.5-1.6-1.6-2-2.4s-0.9-1.6-1.1-1.8c-0.2-0.1-0.4-0.6-0.4-1c0-0.4-0.3-1.3-0.7-1.9
		c-1.1-1.8-2.4-4.6-3.2-6.9c-0.4-1.2-1-2.9-1.3-3.7s-0.6-2.1-0.8-2.7c-0.1-0.7-0.4-1.8-0.6-2.5c-0.6-2.2-1-10.2-0.7-13.3
		c0.2-1.6,0.2-3.3,0.1-3.7l-0.2-0.9L317.9,155.7 M71.5,172c4.2,0.8,4.9,1,5.8,1.7c0.5,0.3,1.8,1.1,2.9,1.6
		c4.4,2.2,9.1,7.3,11.7,12.4c0.3,0.6,0.7,1.3,1,1.5c0.2,0.2,0.6,1.5,0.9,2.9s0.5,2.7,0.7,2.9c0.6,1,0.6,8.6,0,12.2
		c-1.6,10.8-12.6,21.6-23.9,23.4c-4.2,0.7-9.4,0.7-11.6,0.1c-1-0.3-2.5-0.6-3.2-0.7c-4.4-0.5-14.1-7.8-16.6-12.4
		c-0.4-0.8-1.2-2.2-1.7-3.1c-1.2-2.1-2.8-7.6-2.8-9.7c0-0.4-0.1-2-0.1-3.7c-0.1-1.7,0.1-3.3,0.3-3.8c0.2-0.5,0.5-1.8,0.7-3
		c0.4-3.3,2-7.6,2.8-7.6c0.2,0,0.3-0.2,0.3-0.5c0-1.1,6.7-8.6,7.7-8.6c0.1,0,1.1-0.7,2-1.5c1-0.8,2-1.5,2.3-1.5
		c0.3,0,1.5-0.5,2.7-1.1c1.9-0.9,4.7-1.6,9.2-2.3C64.3,171.1,68.5,171.4,71.5,172 M61.3,175.9c-1.1,0.1-2.4,0.4-2.8,0.7
		c-0.4,0.2-1.2,0.4-1.7,0.4c-1.1,0-4.7,1.9-6.1,3.2c-0.5,0.5-1.1,0.9-1.3,0.9c-0.2,0-1.2,0.8-2.2,1.8c-4.3,4.3-5.8,6.7-7.8,13.2
		c-0.5,1.7-0.6,9.1-0.1,10c0.2,0.4,0.6,1.9,1,3.3c0.3,1.4,1.1,3.3,1.7,4.1c0.6,0.9,1.1,1.7,1.1,1.8c0,0.7,3.8,5.2,4.3,5.2
		c0.2,0,1,0.7,1.8,1.5c0.8,0.8,1.7,1.5,1.8,1.5s1.3,0.6,2.5,1.3c4,2.4,11.6,2.9,18.8,1.3c2.9-0.6,8.7-4.4,11-7
		c0.7-0.9,1.8-2,2.3-2.6c1-1,2.2-3.3,2.7-5.2c0.2-0.6,0.7-2.3,1.2-3.8c1.1-3.3,1.4-9.8,0.4-12.3c-1.4-3.9-2.1-5.4-2.4-5.8
		c-0.2-0.2-0.4-0.6-0.4-0.9c0-0.6-1.3-2.5-2.5-3.6c-0.5-0.4-0.8-0.9-0.8-1.1c0-0.6-5.6-4.6-6.9-5c-0.7-0.2-1.5-0.5-1.7-0.7
		c-0.2-0.2-0.6-0.3-0.9-0.3c-0.3,0-0.8-0.2-1.1-0.5C71.9,175.9,66.2,175.3,61.3,175.9 M345.2,248.7c-0.1,0.1-1.3,0.3-2.7,0.6
		c-1.4,0.2-2.9,0.5-3.3,0.7c-5.5,2.6-9,4.6-10,5.9c-0.1,0.1-0.7,0.5-1.3,0.9c-0.6,0.4-1.9,1.6-2.9,2.9c-1,1.2-2.1,2.5-2.4,2.8
		c-1.5,1.7-3.3,4.1-4.7,6.6c-0.9,1.5-1.7,3-1.9,3.3c-1.1,2-4.7,9.4-4.7,9.8c0,0.2-0.5,1.9-1.1,3.7c-0.6,1.8-1.2,4.1-1.3,5.2
		c-0.1,1.1-0.4,2.1-0.5,2.3c-1.5,1.9-1.7,20.8-0.4,27.6c1.1,5.1,1.8,8,2.3,8.8c0.3,0.5,0.6,1.4,0.8,2.1c0.1,0.7,0.6,1.7,1.1,2.3
		c0.5,0.6,0.9,1.3,0.9,1.6s0.5,1.3,1.1,2.2c0.6,0.9,1.3,2.1,1.6,2.6c0.3,0.6,1.3,1.8,2.2,2.7c0.9,0.9,1.7,1.9,1.7,2
		c0,1.1,8,6.2,9.7,6.2c0.1,0,0.9,0.3,1.8,0.7c3.1,1.4,12.4,1.3,14-0.2c0.3-0.3,1-0.6,1.4-0.6c0.4,0,0.9-0.1,1-0.3s0.7-0.4,1.2-0.5
		c1.7-0.3,7.3-3.9,9.7-6.2c1.2-1.2,2.3-2.2,2.5-2.4c1.9-1.8,4.6-5.1,5.5-6.7c0.6-1.2,1.3-2.1,1.5-2.1c0.2,0,0.3-0.2,0.3-0.5
		s0.1-0.5,0.3-0.5c0.3,0,1.8-2.9,4.2-8c0.7-1.5,1.8-4.4,2.4-6.4c0.6-2,1.4-4.3,1.7-5.1c0.3-0.8,0.5-2.1,0.5-2.8
		c0-0.7,0.2-1.5,0.4-1.7c0.9-0.9,1.6-14.4,1-21.7c-0.4-5.8-0.9-8.2-2.1-10.9c-0.4-0.9-0.7-1.8-0.7-2.2c0-0.9-1.8-5.5-2.8-7.1
		c-0.5-0.7-0.9-1.6-0.9-1.9c0-0.3-0.2-0.7-0.5-1c-0.3-0.2-0.6-0.7-0.7-1.1c-0.2-0.6-1.4-2.1-3.7-4.6c-0.7-0.7-1.2-1.5-1.2-1.8
		c0-0.3-0.3-0.6-0.7-0.7c-0.4-0.1-0.9-0.5-1.1-0.9c-0.2-0.4-0.6-0.7-0.8-0.7c-0.2,0-1.3-0.6-2.5-1.4
		C357.3,249.7,346.6,247.3,345.2,248.7 M316.1,257.2c-1.5,0.6-8.7,4.2-9.9,4.9c-0.7,0.5-2.2,1.3-3.3,1.8c-1.1,0.5-2.6,1.4-3.5,2.1
		c-0.8,0.6-2.1,1.6-2.9,2.1c-2.9,2.1-11.9,10.9-13,12.8c-0.3,0.5-1.2,1.6-1.9,2.4c-0.7,0.8-1.3,1.5-1.3,1.5c0,0.1-0.6,1-1.3,2.1
		c-2,3-8.2,16.2-8.2,17.4c0,0.2-0.2,0.8-0.4,1.4c-0.2,0.6-0.5,1.4-0.5,1.8c-0.1,1.4-0.6,4-1.3,6.8c-2,8.1-0.6,15.3,2.9,15.3
		c0.5,0,1.9,0.5,3.1,1.1c1.2,0.6,3.5,1.5,5,2c1.5,0.5,3.4,1.2,4.2,1.6c0.8,0.4,2.2,1,3.1,1.3c0.9,0.3,2.6,1,3.8,1.5
		c1.2,0.5,2.3,0.9,2.6,0.9s1,0.2,1.5,0.5c0.6,0.3,1.4,0.7,1.9,0.9c0.5,0.2,1.8,0.8,2.9,1.3c4.1,1.9,6.6,2.8,7.8,2.8
		c0.7,0,1.3,0.2,1.4,0.5c0.1,0.3,0.3,0.3,0.8-0.1c0.6-0.6,0.5-2.2-0.2-2.2c-0.3,0-3.2-5.8-3.2-6.5c0-0.2-0.2-0.8-0.5-1.3
		c-0.5-0.8-1.5-3.7-2.2-6.3c-0.3-1.3-0.3-1.3-0.7-2c-1.5-3.3-2.2-20.9-1.1-29.2c0.1-0.9,0.2-2.1,0.3-2.7c0-0.6,0.2-1.3,0.4-1.6
		c0.2-0.3,0.5-1.4,0.8-2.6c0.8-3.7,2-7.9,2.5-8.6c0.3-0.4,0.8-1.6,1.1-2.7c0.4-1.1,1-2.8,1.5-3.9c0.5-1,0.9-2,0.9-2.2
		c0-0.2,0.6-1.1,1.3-2.1c0.7-1,1.3-2,1.3-2.3c0-0.3,0.1-0.5,0.3-0.5c0.2,0,1-1.2,1.9-2.6c0.9-1.5,1.8-2.8,2.1-2.9
		c0.3-0.2,0.5-0.5,0.5-0.7s0.3-0.8,0.7-1.4C318.7,257.3,318.3,256.4,316.1,257.2 M170.3,343.2c-0.5,0.8-0.5,0.9,0,1.3
		c1.2,0.8,1.7,0.3,1.4-1.2C171.4,342.1,171,342.1,170.3,343.2"/>
</g>
</svg>
