<svg id="svg" xmlns="http://www.w3.org/2000/svg" viewBox="0 0 400 364.96"><defs><style>.cls-1{fill:#fff;}.cls-2{fill:none;}</style></defs><title>doc-logo-white</title><g id="svgg"><path id="path0" class="cls-1" d="M245.3,13c-1.51,1.06-.82,9.21.79,9.28a118.19,118.19,0,0,1,20,2.22c3,.6,8.13,2.09,8.54,2.51a2.35,2.35,0,0,0,1.37.36,1.77,1.77,0,0,1,1.2.32,3.14,3.14,0,0,0,1.51.53,75.1,75.1,0,0,1,10.38,4.63,36.85,36.85,0,0,0,5.74,2.92c.26,0,.47.16.47.35a23.51,23.51,0,0,0,4.87,3.67c.48,0,2.84,1.82,3.73,2.88a3.3,3.3,0,0,0,1.43,1.14,5.46,5.46,0,0,1,1.86,1.55,17.72,17.72,0,0,0,2.17,2.1,44,44,0,0,1,5.29,6,6,6,0,0,0,1.15,1.34,32.07,32.07,0,0,1,3.08,4.09,41.27,41.27,0,0,0,2.5,3.55,1.94,1.94,0,0,1,.57.95,7.22,7.22,0,0,0,1.11,1.9,8.77,8.77,0,0,1,1.33,2.66,12.71,12.71,0,0,0,1.08,2.74,8.73,8.73,0,0,1,.86,2,15.31,15.31,0,0,0,1.07,2.63c1.71,3.6,2.5,5.81,2.76,7.74.13,1,.48,2.92.77,4.29a9.16,9.16,0,0,1,.33,2.81,8.34,8.34,0,0,0,.21,2.63,26.79,26.79,0,0,1,.4,2.85c0,.3,0,2.27-.07,4.38a96.1,96.1,0,0,1-.91,11.25,17.05,17.05,0,0,1-.51,2.37c-.2.64-.62,2.14-.94,3.35a59,59,0,0,1-1.83,6,86.05,86.05,0,0,1-6,12.43,27.5,27.5,0,0,0-1.63,2.8,4.52,4.52,0,0,1-.87,1.37,44.43,44.43,0,0,0-2.92,3.58,75.15,75.15,0,0,1-14.93,14.65,28,28,0,0,0-2.85,2.28,5.14,5.14,0,0,1-1.73,1.23,15.34,15.34,0,0,0-3,1.64,15,15,0,0,1-3,1.64.63.63,0,0,0-.56.29c-.17.4-8.43,4.09-9.16,4.09a1,1,0,0,0-.78.31c-.24.38-3.2,1.45-8.24,3L267,173.72a73.26,73.26,0,0,1-12.16,1.66c-9.37.45-9.73.67-9.75,5.92,0,4.49.37,5.06,3.2,4.69.86-.11,4-.38,7-.6a80.7,80.7,0,0,0,8.94-1.14c1.91-.41,4.62-1,6-1.21a57.2,57.2,0,0,0,6.46-1.79,40.3,40.3,0,0,1,4.39-1.33,7.07,7.07,0,0,0,1.93-.74,18,18,0,0,1,2.88-1.13,15.49,15.49,0,0,0,3.38-1.63,10.21,10.21,0,0,1,2.36-1.24,7.23,7.23,0,0,0,1.91-.87c2.77-1.61,3-1.58,3.33.4a10.49,10.49,0,0,1,.16,2.48c-.17,1-.15,1.65.13,5.29.39,5,.65,7,1,7.63a17.21,17.21,0,0,1,.76,2.7,7.08,7.08,0,0,0,.76,2.3,1.59,1.59,0,0,1,.3,1.1c0,3.3,9.31,14.67,14.05,17.15a19.68,19.68,0,0,1,2.37,1.41c.84.7,7.28,3.1,7.79,2.9,1-.39,1.82.82,2.13,3.17.46,3.48.56,6.61.25,7.51-.17.47-.12.85.1.92.39.13.48,7.74.1,8.37a12.16,12.16,0,0,0-.2,2.82c0,5-.85,6.84-3.79,7.88-2.17.76-7.11,2.63-9,3.41-.75.3-1.37.66-1.37.79s-.62.45-1.37.72c-4.23,1.49-13.53,6.9-15.89,9.24a2.23,2.23,0,0,1-1,.65,4.09,4.09,0,0,0-1.37,1,23.18,23.18,0,0,1-2.66,2.09,14.89,14.89,0,0,0-2.35,1.92c-.4.46-1.35,1.45-2.12,2.2-4.31,4.22-6.19,6.19-6.57,6.87-.24.42-1.72,2.47-3.3,4.56a51.23,51.23,0,0,0-4.11,6.35c-.69,1.4-1.41,2.8-1.6,3.1a20.9,20.9,0,0,0-1.83,4.18,6.26,6.26,0,0,1-.67,1.67,14,14,0,0,0-1.33,4c-.06.3-.46,1.47-.89,2.59-2.56,6.81-4.35,20.93-3.08,24.45.71,2,.32,3-1.11,2.85a3.49,3.49,0,0,0-1.31.14,11.39,11.39,0,0,1-1.64.4c-.6.1-1.83.35-2.74.54a50,50,0,0,1-5.47.59c-4.79.29-4.85.34-4.8,4.22.07,5.15,1,6.91,3.24,6a17.41,17.41,0,0,1,3.68-.21,14.22,14.22,0,0,0,3.45-.22c.44-.27.81-.33,3.75-.61,2-.19,9.13-2.21,9.86-2.81a6.9,6.9,0,0,1,2.41-.6,7.26,7.26,0,0,0,2.42-.58c.67-.53,3.59,0,4.75.82a21.5,21.5,0,0,0,6.1,2.2,5.69,5.69,0,0,1,1.79.91,5.22,5.22,0,0,0,2.22.91,6.93,6.93,0,0,1,3.47,1.3,8.36,8.36,0,0,0,2,.89,16,16,0,0,1,2.56,1.11,9.79,9.79,0,0,0,2.39.91,10.45,10.45,0,0,1,1.83.54,43.9,43.9,0,0,0,6.95,2.77,15.32,15.32,0,0,1,3.29,1.29,10.15,10.15,0,0,0,2.6,1.05,10.79,10.79,0,0,1,2.37.69c1,.38,2.93,1.06,4.34,1.51a14.07,14.07,0,0,1,3.17,1.36c2.69,2.31,15.1,3.91,20.57,2.64a50.71,50.71,0,0,0,9.66-3.48,12.17,12.17,0,0,1,2.06-1,3.07,3.07,0,0,0,1.23-.78,1.66,1.66,0,0,1,1.11-.53,1.4,1.4,0,0,0,1.06-.73,1.31,1.31,0,0,1,.89-.73c.51,0,2.76-2.35,2.76-2.87,0-.16.39-.47.87-.69,2-.91,8.94-10.56,12.73-17.71.68-1.29,1.52-2.73,1.85-3.21a3.49,3.49,0,0,0,.6-1.65c0-1,1.72-4.89,2.18-4.89.2,0,.37-.62.37-1.37a13.27,13.27,0,0,1,.58-3.19,30.24,30.24,0,0,0,.87-3.83c.42-2.83.73-4.12,1.09-4.55,1.19-1.43,1.35-22.4.21-26.11-.34-1.1-.79-2.66-1-3.47s-.52-1.83-.69-2.28a2.27,2.27,0,0,1-.11-1.36c.35-.91-1-4.47-4.55-11.88a28.76,28.76,0,0,0-2.52-3.83,14,14,0,0,1-2.16-3.1,30.42,30.42,0,0,0-2.95-3.1,34.92,34.92,0,0,0-3.38-3.1,10.31,10.31,0,0,1-1.84-1.46,8.1,8.1,0,0,0-2-1.46,9.21,9.21,0,0,1-1.83-.7,21.15,21.15,0,0,0-6-2.18c-1.1-.21-2.75-.54-3.65-.73-2.67-.58-7.67-.22-12.13.89-2.77.68-3.5-1.6-2.13-6.7a15.88,15.88,0,0,0,0-3.68c-.68-6.88-.69-14.61,0-15a53.79,53.79,0,0,1,8.92-1.33,69.2,69.2,0,0,0,9.41-1.83,24.26,24.26,0,0,0,3.37-1,7.28,7.28,0,0,1,2.26-.58,1.54,1.54,0,0,0,1.13-.36,1.48,1.48,0,0,1,1.1-.37,1.49,1.49,0,0,0,1.08-.34,2.92,2.92,0,0,1,1.39-.59c3.22-.7,11.58-7.15,11.58-8.94a.35.35,0,0,1,.34-.35c.19,0,.45-.37.59-.82s.87-2.13,1.63-3.74a28,28,0,0,0,1.77-4.74c.21-1,.57-2.73.8-3.83.47-2.31.48-13.29,0-14.18a10,10,0,0,1-.57-2.24c-.14-.9-.58-2.87-1-4.38l-.81-3.1a30.22,30.22,0,0,0-2.57-6.33l-2-3.53a18.17,18.17,0,0,0-1.51-2.25,10.56,10.56,0,0,1-1.18-1.83c-1.43-2.82-6.48-8.6-8.69-9.94-.47-.28-1.59-1.1-2.49-1.83s-2-1.51-2.37-1.75c-4.25-2.56-5.87-3.39-7-3.59-.75-.13-2.18-.45-3.19-.72-3.77-1-5.5-1-13.63.07-1.54.2-1.58.18-1.34-.66.4-1.37,2-5.47,2.72-7.07a35,35,0,0,0,2-6.47,2.42,2.42,0,0,1,.44-1.1c.55-.67,2-11.17,2.1-15.43.14-4.69-.06-4.32,5-9.26,2.38-2.32,4.32-4.51,4.32-4.87s.14-.65.32-.65.42-.29.54-.64a8.57,8.57,0,0,1,1.6-2.57,1.77,1.77,0,0,0,.46-1,1.41,1.41,0,0,1,.5-.89,3,3,0,0,0,.71-1.45,19.19,19.19,0,0,1,1.14-3.07A10.62,10.62,0,0,0,357.3,76a1.25,1.25,0,0,1,.32-.93c.68-.42,1.16-11.38.63-14.44a40,40,0,0,0-2.38-8,15.1,15.1,0,0,1-1-1.83l-1-2.28c-.33-.75-.76-1.37-.95-1.37s-.35-.23-.35-.52c0-.59-3.36-5.34-4.78-6.75-2.91-2.91-7.16-6.23-8-6.23a2.7,2.7,0,0,1-1.2-.91,2.56,2.56,0,0,0-1.41-.91,3.18,3.18,0,0,1-1.49-.67c-2.36-1.82-7.63-3.79-11.82-4.44-1-.15-3.05-.55-4.56-.88a44,44,0,0,0-14.06,0c-4.95,1.05-6.56,1.1-8.21.25a7.88,7.88,0,0,0-1.87-.78,7.6,7.6,0,0,1-2-1.33c-1.17-1-2.91-1.76-6.18-2.86a48.74,48.74,0,0,1-4.79-1.77A2.16,2.16,0,0,0,281.1,19a4.85,4.85,0,0,1-2-.71,11.08,11.08,0,0,0-2.6-1.07c-.8-.2-2.11-.55-2.91-.78s-2.86-.71-4.56-1.07a39.68,39.68,0,0,1-4-1,4.92,4.92,0,0,0-2-.23,14.34,14.34,0,0,1-3.47-.39,56.62,56.62,0,0,0-7.12-.75c-2.61-.12-5.08-.3-5.5-.38a2.4,2.4,0,0,0-1.57.42M153.83,26.25c-.85.34-4.2,3.83-4.2,4.37a14.92,14.92,0,0,1-1.82,2.77A23.49,23.49,0,0,0,146,36a6.51,6.51,0,0,1-.82,1.34c-1.23,1.72-1.73,2.79-1.73,3.7,0,1.12-1.67,3.32-4.14,5.43a9.3,9.3,0,0,0-2.06,2.14,6.55,6.55,0,0,1-1.46,1.83,16.23,16.23,0,0,0-2.24,2.84A5.39,5.39,0,0,1,132,55.1a3.37,3.37,0,0,0-1.23,1.41,20.59,20.59,0,0,1-3.19,4.59,11.5,11.5,0,0,0-1.67,2.7,23.43,23.43,0,0,1-1.75,3.2,12.7,12.7,0,0,0-1.32,2.41,28.73,28.73,0,0,1-1.31,2.94,12,12,0,0,0-1,2.56,6.47,6.47,0,0,1-.73,1.83A6.18,6.18,0,0,0,119,79a6.51,6.51,0,0,1-.52,2.1C116.33,86,115,96,115.21,105c.22,8,.27,8.85.57,9.58a10.53,10.53,0,0,1,.4,2,25.43,25.43,0,0,0,1.45,5.66,11,11,0,0,1,.84,3.47,5.41,5.41,0,0,0,.66,2,3.43,3.43,0,0,1,.51,1.62,3.46,3.46,0,0,0,.8,1.85,2.94,2.94,0,0,1,.74,1.66,3.18,3.18,0,0,0,.55,1.6,2.59,2.59,0,0,1,.54,1.17,7.4,7.4,0,0,0,1.1,2.1,25.73,25.73,0,0,1,1.84,3.29,5.84,5.84,0,0,0,1.22,1.94,5.19,5.19,0,0,1,1.17,1.63,17.84,17.84,0,0,0,2.42,3.17,9.22,9.22,0,0,1,1.73,2.2c0,.73,11.51,11.72,12.28,11.72a11.93,11.93,0,0,1,2.76,2,19.47,19.47,0,0,0,3.47,2.55,4.13,4.13,0,0,1,1.39.88.94.94,0,0,0,.73.37,10.61,10.61,0,0,1,2.65,1.42,32.39,32.39,0,0,0,3.95,2.22c1,.44,2.13,1,2.53,1.19a42.54,42.54,0,0,0,6.89,3.19,3.05,3.05,0,0,1,1.23.35,25.47,25.47,0,0,0,4.44,1.84,67.2,67.2,0,0,1,7.14,2.17,41.79,41.79,0,0,0,8.76,2.21,30.19,30.19,0,0,1,4,.79,16.51,16.51,0,0,0,3.1.56c3.11.28,3,0,4,8.88.51,4.39.59,5,.89,6.57.13.7.3,1.93.37,2.74.86,9.54,1.45,10.73,5.76,11.66,1.65.35,1.66.54,1.55,49.66-.1,45.6-.21,50.13-1.26,52.9a6.24,6.24,0,0,0-.38,1.78,28.56,28.56,0,0,1-3.08,7.63,11.41,11.41,0,0,0-1.31,2.26,9.64,9.64,0,0,1-1.78,2.57,4,4,0,0,0-1.12,1.47c0,.22-.59.72-1.32,1.11a8.3,8.3,0,0,0-2.23,1.91c-.5.66-1.08,1.2-1.29,1.2a9.45,9.45,0,0,0-2.14,1.09,13,13,0,0,1-2.78,1.33,4.73,4.73,0,0,0-1.43.57c-.69.54-4.57,1.44-6.89,1.6-1.2.08-3.83.34-5.84.58-4.22.49-3.5.51-9.12-.2-6.72-.85-9.55-1.71-12.52-3.8a8.17,8.17,0,0,0-1.86-1c-1.44-.45-8.27-7.1-9-8.76a6.88,6.88,0,0,0-1-1.57,11,11,0,0,1-1.39-2.68c-3.26-8.62-3.63-10.76-3.6-20.76,0-4.32.07-18.85.12-32.3s0-25.52-.16-26.82a91.08,91.08,0,0,0-1.49-10.74,9.32,9.32,0,0,1-.38-2.17,3,3,0,0,0-.46-1.46,8.46,8.46,0,0,1-.76-2.6,22.33,22.33,0,0,0-1.67-4.81,29.93,29.93,0,0,1-1.41-3.28,8,8,0,0,0-1.19-1.81c-.65-.83-1.43-1.88-1.73-2.33a18.58,18.58,0,0,0-1.37-1.74,3.59,3.59,0,0,1-.82-1.23c0-.17-.23-.31-.51-.31a6.08,6.08,0,0,1-2-1.28,5.59,5.59,0,0,0-2.21-1.28c-.83,0-1.55-2.23-1.1-3.42s.16-9.18-.36-12.46a64.18,64.18,0,0,0-2.41-9.23,10.63,10.63,0,0,1-.5-2.21,1.62,1.62,0,0,0-.34-1c-.19-.19-1.34-2.28-2.56-4.65-2.68-5.21-10.14-14.85-11.49-14.85a18.65,18.65,0,0,1-2.06-2,10.67,10.67,0,0,0-2.24-2,7.52,7.52,0,0,1-1.86-1.05,39.88,39.88,0,0,0-8-4.64c-1.28-.51-2.83-1.16-3.45-1.44a36.63,36.63,0,0,0-6.54-1.88,9.44,9.44,0,0,1-1.82-.47c-2.82-1.19-14.93-1.67-20.26-.81-3.64.59-10.29,2.25-10.85,2.7a3.52,3.52,0,0,1-1.72.36,2.61,2.61,0,0,0-1.72.53,21.48,21.48,0,0,1-5.37,2.68,1.46,1.46,0,0,0-.79.55,1.69,1.69,0,0,1-1.14.55,1.57,1.57,0,0,0-1.14.73c-.25.4-.6.73-.78.73-.63,0-7.71,6-11.15,9.52a23.63,23.63,0,0,0-4.42,5.51,13.37,13.37,0,0,1-1.63,2.49c-1.1,1.2-2.37,3.63-2.37,4.54a3.19,3.19,0,0,1-.85,1.65A7.63,7.63,0,0,0,12.07,181a27.33,27.33,0,0,1-1.16,3.17,7.82,7.82,0,0,0-.69,2.2,15.35,15.35,0,0,1-.57,2.67c-1.51,5.27-2,20.41-.77,23.35a8,8,0,0,1,.54,2.6,5,5,0,0,0,.53,2.19,16.45,16.45,0,0,1,1.15,3.05,21.35,21.35,0,0,0,1,2.82,2.94,2.94,0,0,1,.34,1.13,2.14,2.14,0,0,0,.73,1.16,2.15,2.15,0,0,1,.73,1.17,10,10,0,0,0,1.38,2.59,27.82,27.82,0,0,1,1.78,3c.46,1.06,2.19,3.26,5.14,6.51a27.4,27.4,0,0,1,2.41,2.92c.59,1.16,7.67,6.53,10.74,8.13.45.24.82.57.82.74s.29.31.64.31a3.38,3.38,0,0,1,1.55.72,3.41,3.41,0,0,0,1.42.72,5,5,0,0,1,1.64.68,13.93,13.93,0,0,0,3,1.15,9.69,9.69,0,0,1,2.26.81c.4.3,2.07.74,6.5,1.71,6.09,1.33,17.11,1.28,22.63-.1,5-1.27,10.47-3,11.36-3.71a2.72,2.72,0,0,1,1.29-.53c.58,0,5-2.42,8.15-4.47,1.88-1.21,7.93-6.42,8.34-7.18a12.72,12.72,0,0,1,1.57-1.86c2.83-2.89,5.24-5.7,5.46-6.36a18.41,18.41,0,0,1,1.44-2.6,84.76,84.76,0,0,0,4.84-9.75c.41-1,1-1.73,1.23-1.73,1.61,0,5.14,5.89,6.12,10.22.25,1.1.84,3.24,1.31,4.75,1.11,3.54,1.66,10.57,1.63,20.82-.2,65.09-.28,63.62,4.31,73a8.63,8.63,0,0,1,.8,2.07,1.71,1.71,0,0,0,.51,1,12.91,12.91,0,0,1,1.42,2.31c.87,1.72,6.21,8.18,6.75,8.18a14.74,14.74,0,0,1,2.34,1.92,23.15,23.15,0,0,0,4.2,3,13,13,0,0,1,2.34,1.4,10.42,10.42,0,0,0,2.74,1,35.66,35.66,0,0,1,4,1.3c1.6.69,2.8,1,7.48,1.81,3.54.63,16.05.8,17.52.24a17.48,17.48,0,0,1,2.92-.62,9.22,9.22,0,0,0,2.37-.54,31,31,0,0,1,3.65-1.28,37.65,37.65,0,0,0,9.56-4.44,4.9,4.9,0,0,1,1.52-.86.56.56,0,0,0,.48-.27,19.06,19.06,0,0,1,2.21-2c2.2-1.78,5.94-6.08,6.62-7.62a4.87,4.87,0,0,1,.61-1.1,11.46,11.46,0,0,0,2.25-3.93,6,6,0,0,1,.88-1.93,14.93,14.93,0,0,0,1.3-3.65l.8-3.08.13-73c.07-40.15.14-73.39.15-73.88,0-1.57-.91-1.87-5.7-1.83-4.61,0-8.79-.39-10.53-1.07a2.3,2.3,0,0,0-1.33-.23,2.45,2.45,0,0,1-1.34-.17,29,29,0,0,0-3.78-.72,66.48,66.48,0,0,1-11.69-2.71A42.26,42.26,0,0,0,179.2,165a7.23,7.23,0,0,1-2.72-1,7.82,7.82,0,0,0-2.39-1.15,139.89,139.89,0,0,1-14.89-7.25,4.72,4.72,0,0,0-1.43-.78,3.17,3.17,0,0,1-1.19-.91,2.87,2.87,0,0,0-1.33-.91c-.92,0-13.63-11.52-13.64-12.36a15.06,15.06,0,0,0-1.53-2.24,52,52,0,0,1-4.21-6.75,24.94,24.94,0,0,1-2.07-4.72,7.15,7.15,0,0,0-.93-2,7.07,7.07,0,0,1-.93-2.21,30.18,30.18,0,0,0-1.09-3.47,15.24,15.24,0,0,1-.86-2.92,41.93,41.93,0,0,0-.72-5.66c-1.34-6.92-.61-16.15,1.93-24.27a28.3,28.3,0,0,0,.91-3.38,26.64,26.64,0,0,1,1.58-3.83c.87-1.86,1.8-3.95,2.07-4.65A10.28,10.28,0,0,1,137.29,72a4.27,4.27,0,0,0,1-1.82A5.91,5.91,0,0,1,139.51,68a36.9,36.9,0,0,0,2.1-3.07,31.3,31.3,0,0,1,2.83-3.71,10.5,10.5,0,0,0,1.92-2.65c0-.26.31-.57.68-.69a9.7,9.7,0,0,0,2.32-1.94c2.21-2.33,3.05-2.91,4.61-3.19q2.81-.5,8.24-4.47A24.59,24.59,0,0,1,165.68,46c.56,0,4.24-2.68,4.93-3.58,1.15-1.53.52-3-2.45-5.59-1.45-1.28-3.47-3.19-4.49-4.24a7.43,7.43,0,0,0-2.45-1.92,5,5,0,0,1-2-1.66c-2.19-2.63-3.74-3.41-5.4-2.74M319,31a22,22,0,0,1,8.87,2.34c1,.47,2.66,1.21,3.66,1.64a23.42,23.42,0,0,1,2.37,1.14,15.75,15.75,0,0,0,1.46.8c2.24,1.07,9.25,7.18,10.09,8.79a12.11,12.11,0,0,0,1.34,1.94c.82.94,1,1.32,3,5.33a28.07,28.07,0,0,1,3,12.88c0,4.49-.1,6.41-.39,6.59a1.55,1.55,0,0,0-.33,1.11,3.76,3.76,0,0,1-.52,1.71,8.08,8.08,0,0,0-.77,2.55,6.82,6.82,0,0,1-.87,2.55,14.54,14.54,0,0,0-1.25,2.18A11.76,11.76,0,0,1,347,85.12a22.52,22.52,0,0,0-2,2.47c-1.68,2.55-3.94,4-3.54,2.2a6.82,6.82,0,0,0-.43-2.17,51.59,51.59,0,0,1-1.15-5A10.08,10.08,0,0,0,339,79.2c-.18,0-.33-.45-.33-1a27.3,27.3,0,0,0-2.34-7.46,27.41,27.41,0,0,1-1.62-4.2,23.63,23.63,0,0,0-1.78-4.37,27.18,27.18,0,0,1-1.59-2.81,7,7,0,0,0-1.52-2.19c-.35-.22-.64-.54-.64-.72a9.54,9.54,0,0,0-1.28-2.06,8.65,8.65,0,0,1-1.28-2.12c0-.21-.41-.7-.91-1.1s-.91-.88-.91-1.08a6.72,6.72,0,0,0-1.37-1.83c-.75-.81-2.92-3.2-4.82-5.31a36.91,36.91,0,0,0-4.29-4.29c-.46-.25-.84-.57-.84-.71A28.33,28.33,0,0,0,310,34.87c-1.92-1.54-3.42-3-3.35-3.23.29-.87,6.43-1.17,12.37-.61m-55.8,55c-5.34,2.35-6.66,8.16-2.8,12.32,4.79,5.16,14.08.78,13-6.14-.67-4.47-6.34-7.89-10.24-6.18m-19.63,17.15c-.78.59-1.17,21.55-.42,22.3.52.52,15.4.28,16.76-.27,2-.81,5-2.85,5.43-3.72a19.14,19.14,0,0,1,1.43-2.09,5.94,5.94,0,0,0,1.06-1.83c.91-7.76-1.77-12.4-8.24-14.25-3.3-.94-14.81-1-16-.14m35.09,29.65a2.48,2.48,0,0,0-.6.93c0,.93-6,7.89-6.79,7.89a1.23,1.23,0,0,0-.85.68c-.33.63-1.16,1.12-6.89,4.11a36,36,0,0,1-5.11,2l-4.27,1.28a31.91,31.91,0,0,1-4.7.52c-4.08.22-4.65.51-4.54,2.27.15,2.26,3.51,3.24,7,2a3.5,3.5,0,0,1,1.7-.29c.54.34,9.85-2.42,12.78-3.79a32,32,0,0,0,5.7-3.51,14.71,14.71,0,0,1,1.26-.91c2.11-1.38,5.67-5,6.35-6.4a4.07,4.07,0,0,1,.86-1.33,12.11,12.11,0,0,0,2.26-4.11c0-1.43-3.14-2.46-4.14-1.36m70.73,6.63a8.38,8.38,0,0,0,1.93.74,22.48,22.48,0,0,1,5.46,2.79,4.76,4.76,0,0,0,1.55.87c.21,0,.39.12.39.27a12.23,12.23,0,0,0,2.22,2.07,42.74,42.74,0,0,1,6.72,7.46c.2.33.73,1.12,1.19,1.75a5.79,5.79,0,0,1,.82,1.38,6.17,6.17,0,0,0,.91,1.44,6.18,6.18,0,0,1,.91,1.44c0,.13.82,2,1.83,4.07a23.31,23.31,0,0,1,2.16,6.17,13.39,13.39,0,0,0,.75,3.11,2.89,2.89,0,0,1,.34,1.41,2.91,2.91,0,0,0,.13,1.17c2.14,5.61-.22,19.72-4,24.14a8.88,8.88,0,0,0-1.26,1.78c-1.29,3.57-12.16,6.57-16.77,4.63a3.36,3.36,0,0,0-1.5-.41c-.15.15-1.78-.44-4.1-1.48l-2.19-1a8.5,8.5,0,0,1-2.19-1.64,5.91,5.91,0,0,0-1.89-1.39c-.9-.27-5.28-4.66-7.13-7.14a48,48,0,0,1-3.94-6.35c0-.12-.8-1.9-1.79-4-2.06-4.32-2.47-5.38-2.82-7.39a15.12,15.12,0,0,0-.76-2.67c-2.36-5.66-.61-20.91,3-25.78a12.51,12.51,0,0,0,1.26-2.21c1.88-4.65,13.44-7.9,18.82-5.3M70.8,153.66c5.56.86,8.39,1.47,10.22,2.18,1.1.43,2.42.92,2.92,1.08a24.68,24.68,0,0,1,5.42,2.58c.53.4,2.34,1.64,4,2.75,3.81,2.52,11.31,10,11.38,11.38a6.62,6.62,0,0,0,1.09,1.54,5,5,0,0,1,1.08,1.69,1.47,1.47,0,0,0,.55.88,1.55,1.55,0,0,1,.55,1,4.08,4.08,0,0,0,.76,1.61,5.59,5.59,0,0,1,.83,1.52,11.1,11.1,0,0,0,.47,1.54c2,5.3,3.75,16.27,3.25,20.07-.11.8-.29,2.53-.41,3.83-.32,3.51-1.25,7.29-2.23,9a6.45,6.45,0,0,0-.87,2.37,4.36,4.36,0,0,1-.53,1.79,37.72,37.72,0,0,0-1.94,4,64,64,0,0,1-6.49,8.7,18.72,18.72,0,0,0-1.67,2.1c-.47.7-1.06,1.27-1.29,1.27a10.86,10.86,0,0,0-2.56,2,11.41,11.41,0,0,1-2.53,2,7.52,7.52,0,0,0-2,1.22c-1.85,1.4-2.53,1.77-7.26,4a27.32,27.32,0,0,1-5.11,1.9,29.47,29.47,0,0,0-3.65.92c-5.24,1.72-20,1.26-23.73-.74a22.78,22.78,0,0,0-3.21-1.07,32.76,32.76,0,0,1-9.74-4.64,12.66,12.66,0,0,0-2.85-1.94c-2.42-1.25-11.93-11.59-11.93-13a1.48,1.48,0,0,0-.54-.9c-2.47-2-6.7-15.82-6.85-22.27a88.07,88.07,0,0,1,.79-10.49c.19-.65.27-1.19.17-1.19s0-.37.27-.82a15.33,15.33,0,0,0,.9-2.83c.91-3.95,1.2-4.9,2-6.45.45-.87.95-1.58,1.12-1.58s.31-.23.31-.5a10.48,10.48,0,0,1,2.32-4.56,6.62,6.62,0,0,0,1.34-1.91c.24-.58.58-1.06.76-1.06s.32-.21.32-.47c0-.68,9.15-9.38,9.86-9.38A9.53,9.53,0,0,0,38,161.57a33.66,33.66,0,0,1,4-2.43l2.92-1.52c.76-.41,4.12-1.9,4.56-2,.2-.05,1.6-.35,3.1-.65,5-1,5.87-1.21,6.1-1.44s9.79-.22,12.15.14m248.89,5.7a63,63,0,0,0,.72,13.28c.19.7.44,1.82.56,2.48a20.33,20.33,0,0,0,.76,2.74c.3.84.88,2.52,1.29,3.72a35.71,35.71,0,0,0,3.24,6.93,4.78,4.78,0,0,1,.72,1.89,1.42,1.42,0,0,0,.39,1,6.29,6.29,0,0,1,1.08,1.76,7.37,7.37,0,0,0,2,2.44,4.76,4.76,0,0,1,1.5,1.57c.61,1.82,12.89,12.42,14.46,12.48.59,0,.78.63.29.94-1.6,1-3.53,1.27-13.26,1.66-8,.32-15.43-1.54-17.13-4.27a1.48,1.48,0,0,0-1-.71c-.5,0-1.93-1.46-6.17-6.23a19.92,19.92,0,0,1-2.63-4.2l-1.79-4c-1.23-2.75-1.89-8.6-1.86-16.39,0-6.48,1.53-14.09,2.79-14.09a1.4,1.4,0,0,0,.87-.51,3.07,3.07,0,0,1,1.41-.75,32.48,32.48,0,0,0,7.92-4.14c.2-.16,1.1-.74,2-1.27l1.64-1,.23.86a16.52,16.52,0,0,1-.06,3.73m-257.11,12c-4.49.69-7.24,1.38-9.17,2.32a13,13,0,0,1-2.74,1.09,7.48,7.48,0,0,0-2.28,1.46,10.79,10.79,0,0,1-2,1.46c-1,0-7.68,7.57-7.68,8.64,0,.27-.15.49-.34.49-.81,0-2.39,4.3-2.79,7.63a13.13,13.13,0,0,1-.67,3,11.72,11.72,0,0,0-.3,3.83c.06,1.61.12,3.25.13,3.65a31.56,31.56,0,0,0,2.8,9.67c.5.9,1.26,2.29,1.68,3.07,2.48,4.63,12.24,11.93,16.6,12.41a24.11,24.11,0,0,1,3.2.68c8.05,2.31,20.56-1.5,27-8.22s8.92-12.47,8.94-20.35c0-3.39-.2-6.69-.44-7.12a19.67,19.67,0,0,1-.67-2.92,8.86,8.86,0,0,0-.87-2.92,6.22,6.22,0,0,1-1-1.46c-2.56-5.13-7.32-10.2-11.68-12.43-1.1-.56-2.42-1.3-2.92-1.64-1-.66-1.6-.83-5.84-1.66a35.33,35.33,0,0,0-8.94-.64m7.85,4.76a10.28,10.28,0,0,1,2.95,1.07,2.08,2.08,0,0,0,1.11.5,1.47,1.47,0,0,1,.88.33,5.44,5.44,0,0,0,1.67.69c1.31.35,6.84,4.35,6.88,5a3.07,3.07,0,0,0,.84,1.11c1.17,1.12,2.46,3,2.46,3.59a1.42,1.42,0,0,0,.37.86c.34.34,1,1.88,2.43,5.79.92,2.49.68,9-.44,12.28-.51,1.48-1.07,3.19-1.24,3.79a14.12,14.12,0,0,1-2.73,5.24c-.53.53-1.57,1.68-2.31,2.56-2.26,2.67-8.08,6.39-11,7-7.18,1.58-14.76,1-18.79-1.34a13.55,13.55,0,0,0-2.46-1.25,7.22,7.22,0,0,1-1.84-1.46,7.43,7.43,0,0,0-1.83-1.46c-.56,0-4.33-4.55-4.33-5.23A10.85,10.85,0,0,0,42,213.43a15.69,15.69,0,0,1-1.69-4.12,23.07,23.07,0,0,0-1-3.26c-.49-.94-.4-8.34.12-10,2-6.49,3.5-9,7.81-13.21a9.84,9.84,0,0,1,2.17-1.8,3.58,3.58,0,0,0,1.28-.87c1.35-1.25,5-3.15,6.09-3.15a4.28,4.28,0,0,0,1.7-.42c1.88-1,8.52-1.24,11.94-.42m285.75,73.65a24,24,0,0,1,4.76,2.4,10.5,10.5,0,0,0,2.47,1.43c.24,0,.6.32.8.71a2.23,2.23,0,0,0,1.11.94c.4.13.73.45.73.72a4.78,4.78,0,0,0,1.19,1.76c2.38,2.56,3.54,4,3.74,4.65a2.77,2.77,0,0,0,.74,1.1,1.49,1.49,0,0,1,.53,1,5.78,5.78,0,0,0,.85,1.87c1,1.58,2.8,6.19,2.8,7.12a8,8,0,0,0,.7,2.18c1.22,2.69,1.69,5.08,2.13,10.85.56,7.31-.05,20.73-1,21.67a3,3,0,0,0-.38,1.66,10.11,10.11,0,0,1-.52,2.76c-.29.81-1,3.11-1.69,5.12a66.49,66.49,0,0,1-2.44,6.39c-2.4,5.15-3.9,8-4.19,8s-.29.25-.29.55-.13.55-.28.55a7.49,7.49,0,0,0-1.45,2.1A37.84,37.84,0,0,1,361,342l-2.49,2.37c-2.37,2.26-8,5.86-9.72,6.2a2.42,2.42,0,0,0-1.23.52,1.32,1.32,0,0,1-1,.32,2.42,2.42,0,0,0-1.39.56c-1.63,1.48-10.92,1.59-14,.17a12.53,12.53,0,0,0-1.82-.73c-1.63,0-9.67-5.17-9.67-6.22a9.21,9.21,0,0,0-1.66-2,16,16,0,0,1-2.19-2.73c-.29-.56-1-1.76-1.62-2.65a6.85,6.85,0,0,1-1.1-2.18,3.86,3.86,0,0,0-.92-1.64,6,6,0,0,1-1.14-2.31,7.21,7.21,0,0,0-.77-2.1c-.48-.77-1.24-3.67-2.3-8.8-1.39-6.71-1.14-25.63.36-27.56a8.27,8.27,0,0,0,.54-2.33,35.52,35.52,0,0,1,1.33-5.21,31.58,31.58,0,0,0,1.07-3.69c0-.37,3.58-7.76,4.73-9.76l1.88-3.29a38.34,38.34,0,0,1,4.71-6.61c.3-.33,1.37-1.58,2.37-2.79a16.56,16.56,0,0,1,2.92-2.85,8,8,0,0,0,1.28-.88c1-1.25,4.51-3.3,10-5.86a19,19,0,0,1,3.27-.73,15.28,15.28,0,0,0,2.72-.56c.58-.58,8.43.22,11,1.12M318,257.76a7.91,7.91,0,0,1-.94,1.79,3.87,3.87,0,0,0-.68,1.35,1,1,0,0,1-.49.67,15.16,15.16,0,0,0-2.06,2.94,11,11,0,0,1-1.88,2.65c-.17,0-.31.22-.31.48a8.12,8.12,0,0,1-1.28,2.28,9.93,9.93,0,0,0-1.28,2.13,12.66,12.66,0,0,1-.86,2.19c-.47,1-1.15,2.76-1.52,3.87a17.2,17.2,0,0,1-1.13,2.74,52.13,52.13,0,0,0-2.52,8.64,13.38,13.38,0,0,1-.77,2.55,4.48,4.48,0,0,0-.39,1.58c0,.6-.18,1.83-.29,2.74-1,8.33-.33,25.91,1.14,29.2a8.77,8.77,0,0,1,.65,2,32.17,32.17,0,0,0,2.21,6.26,3.29,3.29,0,0,1,.55,1.26c0,.7,2.9,6.53,3.25,6.53.63,0,.76,1.63.17,2.19s-.62.44-.75.09-.74-.46-1.43-.46c-1.22,0-3.68-.89-7.8-2.81-1.1-.51-2.42-1.09-2.92-1.29s-1.38-.58-1.95-.86a4.87,4.87,0,0,0-1.54-.51,12.69,12.69,0,0,1-2.62-.94c-1.16-.52-2.85-1.19-3.75-1.5a32.42,32.42,0,0,1-3.1-1.27c-.8-.39-2.68-1.13-4.17-1.63s-3.72-1.4-5-2a11.37,11.37,0,0,0-3.1-1.07c-3.56,0-4.94-7.2-2.92-15.33a49.77,49.77,0,0,0,1.28-6.75,7.21,7.21,0,0,1,.48-1.76,5.74,5.74,0,0,0,.43-1.39c0-1.21,6.24-14.46,8.2-17.41.71-1.07,1.29-2,1.29-2.05a15.27,15.27,0,0,1,1.32-1.52,20.69,20.69,0,0,0,1.94-2.4c1.19-1.89,10.12-10.66,13-12.8.77-.56,2-1.52,2.85-2.13A23.46,23.46,0,0,1,302.9,264a29.59,29.59,0,0,0,3.29-1.83c1.12-.77,8.33-4.38,9.87-4.94s2.25-.28,2,.56M171.69,343.27c.38,1.51-.21,2-1.37,1.17-.57-.42-.58-.52,0-1.28.75-1.07,1.13-1,1.42.11"/><path id="path1" class="cls-2" d="M0,182.48V365H400V0H0V182.48M252.37,13a56.62,56.62,0,0,1,7.12.75,14.34,14.34,0,0,0,3.47.39,4.92,4.92,0,0,1,2,.23,39.68,39.68,0,0,0,4,1c1.71.36,3.76.85,4.56,1.07s2.11.58,2.91.78a11.08,11.08,0,0,1,2.6,1.07,4.85,4.85,0,0,0,2,.71,2.16,2.16,0,0,1,1.14.24A48.74,48.74,0,0,0,287,21c3.27,1.1,5,1.91,6.18,2.86a7.6,7.6,0,0,0,2,1.33,7.88,7.88,0,0,1,1.87.78c1.64.86,3.26.81,8.21-.25a44,44,0,0,1,14.06,0c1.5.33,3.55.73,4.56.88,4.19.64,9.45,2.62,11.82,4.44a3.18,3.18,0,0,0,1.49.67,2.56,2.56,0,0,1,1.41.91,2.7,2.7,0,0,0,1.2.91c.8,0,5,3.33,8,6.23,1.42,1.41,4.78,6.16,4.78,6.75,0,.28.16.52.35.52s.62.62.95,1.37l1,2.28a15.1,15.1,0,0,0,1,1.83,40,40,0,0,1,2.38,8c.53,3.06,0,14-.63,14.44a1.25,1.25,0,0,0-.32.93,10.62,10.62,0,0,1-.93,2.77,19.19,19.19,0,0,0-1.14,3.07,3,3,0,0,1-.71,1.45,1.41,1.41,0,0,0-.5.89,1.77,1.77,0,0,1-.46,1,8.57,8.57,0,0,0-1.6,2.57c-.12.35-.36.64-.54.64s-.32.29-.32.65-1.94,2.55-4.32,4.87c-5,4.93-4.85,4.57-5,9.26-.12,4.26-1.55,14.75-2.1,15.43a2.42,2.42,0,0,0-.44,1.1,35,35,0,0,1-2,6.47c-.74,1.59-2.32,5.69-2.72,7.07-.24.83-.2.86,1.34.66,8.13-1.05,9.86-1.06,13.63-.07,1,.26,2.44.59,3.19.72,1.16.2,2.78,1,7,3.59.4.24,1.47,1,2.37,1.75s2,1.54,2.49,1.83c2.21,1.34,7.26,7.12,8.69,9.94a10.56,10.56,0,0,0,1.18,1.83,18.17,18.17,0,0,1,1.51,2.25l2,3.53a30.22,30.22,0,0,1,2.57,6.33l.81,3.1c.39,1.51.83,3.48,1,4.38a10,10,0,0,0,.57,2.24c.47.9.46,11.87,0,14.18-.23,1.1-.58,2.83-.8,3.83A28,28,0,0,1,380.3,198c-.76,1.61-1.5,3.29-1.63,3.74s-.4.82-.59.82a.35.35,0,0,0-.34.35c0,1.79-8.36,8.24-11.58,8.94a2.92,2.92,0,0,0-1.39.59,1.49,1.49,0,0,1-1.08.34,1.48,1.48,0,0,0-1.1.37,1.54,1.54,0,0,1-1.13.36,7.28,7.28,0,0,0-2.26.58,24.26,24.26,0,0,1-3.37,1,69.2,69.2,0,0,1-9.41,1.83,53.79,53.79,0,0,0-8.92,1.33c-.67.35-.66,8.08,0,15a15.88,15.88,0,0,1,0,3.68c-1.36,5.09-.63,7.38,2.13,6.7,4.46-1.1,9.46-1.47,12.13-.89.9.2,2.54.53,3.65.73a21.15,21.15,0,0,1,6,2.18,9.21,9.21,0,0,0,1.83.7,8.1,8.1,0,0,1,2,1.46,10.31,10.31,0,0,0,1.84,1.46,34.92,34.92,0,0,1,3.38,3.1,30.42,30.42,0,0,1,2.95,3.1,14,14,0,0,0,2.16,3.1,28.76,28.76,0,0,1,2.52,3.83c3.53,7.41,4.9,11,4.55,11.88a2.27,2.27,0,0,0,.11,1.36c.17.45.48,1.47.69,2.28s.65,2.36,1,3.47c1.14,3.71,1,24.67-.21,26.11-.36.43-.67,1.72-1.09,4.55a30.24,30.24,0,0,1-.87,3.83,13.27,13.27,0,0,0-.58,3.19c0,.75-.17,1.37-.37,1.37-.47,0-2.18,3.84-2.18,4.89a3.49,3.49,0,0,1-.6,1.65c-.33.47-1.16,1.92-1.85,3.21C373,337.33,366,347,364,347.89c-.48.22-.87.53-.87.69,0,.53-2.25,2.87-2.76,2.87a1.31,1.31,0,0,0-.89.73,1.4,1.4,0,0,1-1.06.73,1.66,1.66,0,0,0-1.11.53,3.07,3.07,0,0,1-1.23.78,12.17,12.17,0,0,0-2.06,1,50.71,50.71,0,0,1-9.66,3.48c-5.47,1.26-17.87-.33-20.57-2.64a14.07,14.07,0,0,0-3.17-1.36c-1.4-.46-3.36-1.14-4.34-1.51a10.79,10.79,0,0,0-2.37-.69,10.15,10.15,0,0,1-2.6-1.05,15.32,15.32,0,0,0-3.29-1.29,43.9,43.9,0,0,1-6.95-2.77,10.45,10.45,0,0,0-1.83-.54,9.79,9.79,0,0,1-2.39-.91,16,16,0,0,0-2.56-1.11,8.36,8.36,0,0,1-2-.89,6.93,6.93,0,0,0-3.47-1.3,5.22,5.22,0,0,1-2.22-.91,5.69,5.69,0,0,0-1.79-.91,21.5,21.5,0,0,1-6.1-2.2c-1.16-.85-4.07-1.35-4.75-.82a7.26,7.26,0,0,1-2.42.58,6.9,6.9,0,0,0-2.41.6c-.72.6-7.82,2.63-9.86,2.81-2.94.27-3.31.33-3.75.61a14.22,14.22,0,0,1-3.45.22,17.41,17.41,0,0,0-3.68.21c-2.23.89-3.18-.87-3.24-6-.05-3.88,0-3.93,4.8-4.22a50,50,0,0,0,5.47-.59c.9-.2,2.14-.44,2.74-.54a11.39,11.39,0,0,0,1.64-.4,3.49,3.49,0,0,1,1.31-.14c1.43.14,1.82-.88,1.11-2.85-1.26-3.51.52-17.64,3.08-24.45.42-1.12.82-2.29.89-2.59a14,14,0,0,1,1.33-4,6.26,6.26,0,0,0,.67-1.67,20.9,20.9,0,0,1,1.83-4.18c.19-.3.91-1.7,1.6-3.1a51.23,51.23,0,0,1,4.11-6.35c1.57-2.09,3.06-4.14,3.3-4.56.39-.68,2.26-2.64,6.57-6.87.76-.75,1.72-1.74,2.12-2.2a14.89,14.89,0,0,1,2.35-1.92,23.18,23.18,0,0,0,2.66-2.09,4.09,4.09,0,0,1,1.37-1,2.23,2.23,0,0,0,1-.65c2.36-2.33,11.66-7.74,15.89-9.24.75-.27,1.37-.59,1.37-.72s.62-.49,1.37-.79c1.92-.78,6.86-2.64,9-3.41,2.94-1,3.8-2.84,3.79-7.88a12.16,12.16,0,0,1,.2-2.82c.38-.62.29-8.23-.1-8.37-.23-.07-.27-.45-.1-.92.31-.9.21-4-.25-7.51-.31-2.35-1.12-3.56-2.13-3.17-.51.19-7-2.21-7.79-2.9a19.68,19.68,0,0,0-2.37-1.41c-4.74-2.48-14.05-13.85-14.05-17.15a1.59,1.59,0,0,0-.3-1.1,7.08,7.08,0,0,1-.76-2.3,17.21,17.21,0,0,0-.76-2.7c-.56-1.09-1.41-11.11-1.1-12.92a10.49,10.49,0,0,0-.16-2.48c-.32-2-.56-2-3.33-.4a7.23,7.23,0,0,1-1.91.87,10.21,10.21,0,0,0-2.36,1.24,15.49,15.49,0,0,1-3.38,1.63,18,18,0,0,0-2.88,1.13,7.07,7.07,0,0,1-1.93.74,40.3,40.3,0,0,0-4.39,1.33,57.2,57.2,0,0,1-6.46,1.79c-1.4.25-4.11.8-6,1.21a80.7,80.7,0,0,1-8.94,1.14c-3,.22-6.18.49-7,.6-2.83.37-3.22-.2-3.2-4.69,0-5.25.39-5.47,9.75-5.92A73.26,73.26,0,0,0,267,173.72l4.93-1.48c5-1.51,8-2.57,8.24-3a1,1,0,0,1,.78-.31c.73,0,9-3.69,9.16-4.09a.63.63,0,0,1,.56-.29,15,15,0,0,0,3-1.64,15.34,15.34,0,0,1,3-1.64,5.14,5.14,0,0,0,1.73-1.23,28,28,0,0,1,2.85-2.28,75.15,75.15,0,0,0,14.93-14.65,44.43,44.43,0,0,1,2.92-3.58,4.52,4.52,0,0,0,.87-1.37,27.5,27.5,0,0,1,1.63-2.8,86.05,86.05,0,0,0,6-12.43,59,59,0,0,0,1.83-6c.32-1.21.75-2.71.94-3.35a17.05,17.05,0,0,0,.51-2.37,96.1,96.1,0,0,0,.91-11.25c0-2.11.06-4.08.07-4.38a26.79,26.79,0,0,0-.4-2.85,8.34,8.34,0,0,1-.21-2.63,9.16,9.16,0,0,0-.33-2.81c-.29-1.37-.64-3.29-.77-4.29-.26-1.93-1-4.14-2.76-7.74a15.31,15.31,0,0,1-1.07-2.63,8.73,8.73,0,0,0-.86-2,12.71,12.71,0,0,1-1.08-2.74A8.77,8.77,0,0,0,323,65.29a7.22,7.22,0,0,1-1.11-1.9,1.94,1.94,0,0,0-.57-.95,41.27,41.27,0,0,1-2.5-3.55,32.07,32.07,0,0,0-3.08-4.09,6,6,0,0,1-1.15-1.34,44,44,0,0,0-5.29-6,17.72,17.72,0,0,1-2.17-2.1,5.46,5.46,0,0,0-1.86-1.55,3.3,3.3,0,0,1-1.43-1.14c-.89-1.06-3.25-2.88-3.73-2.88a23.51,23.51,0,0,1-4.87-3.67c0-.19-.21-.35-.47-.35a36.85,36.85,0,0,1-5.74-2.92,75.1,75.1,0,0,0-10.38-4.63,3.14,3.14,0,0,1-1.51-.53,1.77,1.77,0,0,0-1.2-.32A2.35,2.35,0,0,1,274.6,27c-.41-.41-5.5-1.91-8.54-2.51a118.19,118.19,0,0,0-20-2.22c-1.6-.07-2.29-8.22-.79-9.28a2.4,2.4,0,0,1,1.57-.42c.41.08,2.89.26,5.5.38M156.71,26.62A13.68,13.68,0,0,1,159.23,29a5,5,0,0,0,2,1.66,7.43,7.43,0,0,1,2.45,1.92c1,1.05,3,3,4.49,4.24,3,2.62,3.61,4.06,2.45,5.59-.68.91-4.37,3.58-4.93,3.58a24.59,24.59,0,0,0-3.47,2.28q-5.44,4-8.24,4.47c-1.56.28-2.4.86-4.61,3.19A9.7,9.7,0,0,1,147,57.86c-.38.12-.68.43-.68.69a10.5,10.5,0,0,1-1.92,2.65,31.3,31.3,0,0,0-2.83,3.71,36.9,36.9,0,0,1-2.1,3.07,5.91,5.91,0,0,0-1.19,2.16,4.27,4.27,0,0,1-1,1.82,10.28,10.28,0,0,0-1.52,2.48c-.27.7-1.2,2.79-2.07,4.65a26.64,26.64,0,0,0-1.58,3.83,28.3,28.3,0,0,1-.91,3.38c-2.54,8.11-3.28,17.35-1.93,24.27a41.93,41.93,0,0,1,.72,5.66,15.24,15.24,0,0,0,.86,2.92,30.18,30.18,0,0,1,1.09,3.47,7.07,7.07,0,0,0,.93,2.21,7.15,7.15,0,0,1,.93,2,24.94,24.94,0,0,0,2.07,4.72,52,52,0,0,0,4.21,6.75,15.06,15.06,0,0,1,1.53,2.24c0,.84,12.72,12.36,13.64,12.36a2.87,2.87,0,0,1,1.33.91,3.17,3.17,0,0,0,1.19.91,4.72,4.72,0,0,1,1.43.78,139.89,139.89,0,0,0,14.89,7.25,7.82,7.82,0,0,1,2.39,1.15,7.23,7.23,0,0,0,2.72,1,42.26,42.26,0,0,1,4.73,1.32A66.48,66.48,0,0,0,195.62,169a29,29,0,0,1,3.78.72,2.45,2.45,0,0,0,1.34.17,2.3,2.3,0,0,1,1.33.23c1.74.68,5.92,1.11,10.53,1.07,4.79,0,5.74.26,5.7,1.83,0,.49-.08,33.74-.15,73.88l-.13,73-.8,3.08a14.93,14.93,0,0,1-1.3,3.65,6,6,0,0,0-.88,1.93,11.46,11.46,0,0,1-2.25,3.93,4.87,4.87,0,0,0-.61,1.1c-.68,1.54-4.41,5.83-6.62,7.62a19.06,19.06,0,0,0-2.21,2,.56.56,0,0,1-.48.27,4.9,4.9,0,0,0-1.52.86,37.65,37.65,0,0,1-9.56,4.44,31,31,0,0,0-3.65,1.28,9.22,9.22,0,0,1-2.37.54,17.48,17.48,0,0,0-2.92.62c-3.39,1.29-20.54-.12-25-2.06a35.66,35.66,0,0,0-4-1.3,10.42,10.42,0,0,1-2.74-1,13,13,0,0,0-2.34-1.4,23.15,23.15,0,0,1-4.2-3,14.74,14.74,0,0,0-2.34-1.92c-.55,0-5.88-6.46-6.75-8.18a12.91,12.91,0,0,0-1.42-2.31,1.71,1.71,0,0,1-.51-1,8.63,8.63,0,0,0-.8-2.07c-4.59-9.34-4.5-7.87-4.31-73,0-10.24-.52-17.27-1.63-20.82-.47-1.51-1.06-3.64-1.31-4.75-1-4.33-4.5-10.21-6.12-10.22-.26,0-.82.78-1.23,1.73a84.76,84.76,0,0,1-4.84,9.75,18.41,18.41,0,0,0-1.44,2.6c-.22.66-2.63,3.47-5.46,6.36a12.72,12.72,0,0,0-1.57,1.86c-.41.76-6.46,6-8.34,7.18-3.18,2.05-7.57,4.46-8.15,4.47a2.72,2.72,0,0,0-1.29.53c-.89.68-6.31,2.45-11.36,3.71-5.52,1.38-16.54,1.43-22.63.1-4.43-1-6.1-1.41-6.5-1.71a9.69,9.69,0,0,0-2.26-.81,13.93,13.93,0,0,1-3-1.15,5,5,0,0,0-1.64-.68,3.41,3.41,0,0,1-1.42-.72,3.38,3.38,0,0,0-1.55-.72c-.35,0-.64-.15-.64-.31s-.37-.5-.82-.74c-3.06-1.61-10.15-7-10.74-8.13a27.4,27.4,0,0,0-2.41-2.92c-3-3.26-4.68-5.45-5.14-6.51a27.82,27.82,0,0,0-1.78-3,10,10,0,0,1-1.38-2.59,2.15,2.15,0,0,0-.73-1.17,2.14,2.14,0,0,1-.73-1.16,2.94,2.94,0,0,0-.34-1.13,21.35,21.35,0,0,1-1-2.82,16.45,16.45,0,0,0-1.15-3.05A5,5,0,0,1,9.42,215a8,8,0,0,0-.54-2.6c-1.24-2.94-.74-18.08.77-23.35a15.35,15.35,0,0,0,.57-2.67,7.82,7.82,0,0,1,.69-2.2A27.33,27.33,0,0,0,12.07,181a7.63,7.63,0,0,1,1.31-2.57,3.19,3.19,0,0,0,.85-1.65c0-.9,1.27-3.34,2.37-4.54a13.37,13.37,0,0,0,1.63-2.49,23.63,23.63,0,0,1,4.42-5.51c3.44-3.47,10.53-9.52,11.15-9.52.18,0,.53-.33.78-.73a1.57,1.57,0,0,1,1.14-.73,1.69,1.69,0,0,0,1.14-.55,1.46,1.46,0,0,1,.79-.55A21.48,21.48,0,0,0,43,149.51a2.61,2.61,0,0,1,1.72-.53,3.52,3.52,0,0,0,1.72-.36c.56-.46,7.21-2.11,10.85-2.7,5.32-.86,17.43-.38,20.26.81a9.44,9.44,0,0,0,1.82.47,36.63,36.63,0,0,1,6.54,1.88c.62.28,2.17.93,3.45,1.44a39.88,39.88,0,0,1,8,4.64,7.52,7.52,0,0,0,1.86,1.05,10.67,10.67,0,0,1,2.24,2,18.65,18.65,0,0,0,2.06,2c1.35,0,8.81,9.64,11.49,14.85,1.22,2.37,2.37,4.46,2.56,4.65a1.62,1.62,0,0,1,.34,1,10.63,10.63,0,0,0,.5,2.21,64.18,64.18,0,0,1,2.41,9.23c.52,3.28.75,11.42.36,12.46s.26,3.42,1.1,3.42a5.59,5.59,0,0,1,2.21,1.28,6.08,6.08,0,0,0,2,1.28c.28,0,.51.14.51.31a3.59,3.59,0,0,0,.82,1.23,18.58,18.58,0,0,1,1.37,1.74c.3.45,1.08,1.5,1.73,2.33a8,8,0,0,1,1.19,1.81,29.93,29.93,0,0,0,1.41,3.28,22.33,22.33,0,0,1,1.67,4.81,8.46,8.46,0,0,0,.76,2.6,3,3,0,0,1,.46,1.46,9.32,9.32,0,0,0,.38,2.17,91.08,91.08,0,0,1,1.49,10.74c.14,1.3.21,13.38.16,26.82s-.11,28-.12,32.3c0,10,.34,12.14,3.6,20.76a11,11,0,0,0,1.39,2.68,6.88,6.88,0,0,1,1,1.57c.72,1.66,7.54,8.31,9,8.76a8.17,8.17,0,0,1,1.86,1c3,2.09,5.79,2.95,12.52,3.8,5.62.71,4.91.7,9.12.2,2-.23,4.64-.49,5.84-.58,2.32-.16,6.19-1.06,6.89-1.6a4.73,4.73,0,0,1,1.43-.57,13,13,0,0,0,2.78-1.33,9.45,9.45,0,0,1,2.14-1.09c.2,0,.78-.54,1.29-1.2a8.3,8.3,0,0,1,2.23-1.91c.73-.39,1.32-.89,1.32-1.11a4,4,0,0,1,1.12-1.47,9.64,9.64,0,0,0,1.78-2.57,11.41,11.41,0,0,1,1.31-2.26,28.56,28.56,0,0,0,3.08-7.63,6.24,6.24,0,0,1,.38-1.78c1.05-2.77,1.16-7.3,1.26-52.9.1-49.12.1-49.3-1.55-49.66-4.31-.93-4.9-2.12-5.76-11.66-.07-.8-.24-2-.37-2.74-.3-1.56-.38-2.18-.89-6.57-1-8.91-.89-8.6-4-8.87a16.51,16.51,0,0,1-3.1-.56,30.19,30.19,0,0,0-4-.79,41.79,41.79,0,0,1-8.76-2.21,67.2,67.2,0,0,0-7.14-2.17,25.47,25.47,0,0,1-4.44-1.84,3.05,3.05,0,0,0-1.23-.35,42.54,42.54,0,0,1-6.89-3.19c-.4-.22-1.54-.76-2.53-1.19a32.39,32.39,0,0,1-3.95-2.22,10.61,10.61,0,0,0-2.65-1.42.94.94,0,0,1-.73-.37,4.13,4.13,0,0,0-1.39-.88,19.47,19.47,0,0,1-3.47-2.55,11.93,11.93,0,0,0-2.76-2c-.76,0-12.28-11-12.28-11.72a9.22,9.22,0,0,0-1.73-2.2,17.84,17.84,0,0,1-2.42-3.17,5.19,5.19,0,0,0-1.17-1.63,5.84,5.84,0,0,1-1.22-1.94,25.73,25.73,0,0,0-1.84-3.29,7.4,7.4,0,0,1-1.1-2.1,2.59,2.59,0,0,0-.54-1.17,3.18,3.18,0,0,1-.55-1.6,2.94,2.94,0,0,0-.74-1.66,3.46,3.46,0,0,1-.8-1.85,3.43,3.43,0,0,0-.51-1.62,5.41,5.41,0,0,1-.66-2,11,11,0,0,0-.84-3.47,25.43,25.43,0,0,1-1.45-5.66,10.53,10.53,0,0,0-.4-2c-.31-.73-.36-1.6-.57-9.58C115,96,116.33,86,118.46,81.1A6.51,6.51,0,0,0,119,79a6.18,6.18,0,0,1,.73-2.26,6.47,6.47,0,0,0,.73-1.83,12,12,0,0,1,1-2.56,28.73,28.73,0,0,0,1.31-2.94A12.7,12.7,0,0,1,124.11,67a23.43,23.43,0,0,0,1.75-3.2,11.5,11.5,0,0,1,1.67-2.7,20.59,20.59,0,0,0,3.19-4.59A3.37,3.37,0,0,1,132,55.1a5.39,5.39,0,0,0,1.57-1.8,16.23,16.23,0,0,1,2.24-2.84,6.55,6.55,0,0,0,1.46-1.83,9.3,9.3,0,0,1,2.06-2.14c2.47-2.12,4.14-4.31,4.14-5.43,0-.91.5-2,1.73-3.7A6.51,6.51,0,0,0,146,36a23.49,23.49,0,0,1,1.82-2.61,14.92,14.92,0,0,0,1.82-2.77c0-.54,3.35-4,4.2-4.37a2.55,2.55,0,0,1,2.88.36M308.61,31c-2.62.31-2.46.77,1.41,3.88a28.33,28.33,0,0,1,3.49,3.07c0,.15.38.47.84.71a36.91,36.91,0,0,1,4.29,4.29c1.9,2.11,4.06,4.5,4.82,5.31a6.72,6.72,0,0,1,1.37,1.83c0,.2.41.68.91,1.08s.91.89.91,1.1a8.65,8.65,0,0,0,1.28,2.12,9.54,9.54,0,0,1,1.28,2.06c0,.18.29.5.64.72a7,7,0,0,1,1.52,2.19,27.18,27.18,0,0,0,1.59,2.81,23.63,23.63,0,0,1,1.78,4.37,27.41,27.41,0,0,0,1.63,4.2,27.3,27.3,0,0,1,2.34,7.46c0,.55.15,1,.33,1a10.08,10.08,0,0,1,.94,3.38,51.59,51.59,0,0,0,1.15,5,6.82,6.82,0,0,1,.43,2.17c-.4,1.76,1.86.36,3.54-2.2a22.52,22.52,0,0,1,2-2.47,11.76,11.76,0,0,0,1.74-2.56A14.54,14.54,0,0,1,350,80.39a6.82,6.82,0,0,0,.87-2.55,8.08,8.08,0,0,1,.77-2.55,3.76,3.76,0,0,0,.52-1.71,1.55,1.55,0,0,1,.33-1.11c.29-.18.4-2.1.39-6.59a28.07,28.07,0,0,0-3-12.88c-2-4-2.23-4.39-3-5.33a12.11,12.11,0,0,1-1.34-1.94c-.84-1.61-7.85-7.72-10.09-8.79a15.75,15.75,0,0,1-1.46-.8A23.42,23.42,0,0,0,331.57,35c-1-.43-2.65-1.17-3.66-1.64-5-2.33-12.25-3.22-19.3-2.37m-39.89,55.2c3.93,2.09,5.63,5.54,4.44,9-3,8.81-16.06,6.09-14.79-3.09.67-4.8,6.35-8,10.35-5.91m-9.1,17.08c6.48,1.85,9.16,6.48,8.24,14.25a5.94,5.94,0,0,1-1.06,1.83,19.14,19.14,0,0,0-1.43,2.09c-.46.87-3.45,2.91-5.43,3.72-1.35.55-16.24.79-16.76.27-.75-.75-.35-21.71.42-22.3,1.2-.9,12.71-.8,16,.14m22,29.57c.65.4,1.19,1,1.19,1.3a12.11,12.11,0,0,1-2.26,4.11,4.07,4.07,0,0,0-.86,1.33c-.68,1.44-4.23,5-6.35,6.4a14.71,14.71,0,0,0-1.26.91,32,32,0,0,1-5.7,3.51c-2.93,1.37-12.24,4.12-12.78,3.79a3.5,3.5,0,0,0-1.7.29c-3.47,1.2-6.83.21-7-2-.12-1.76.46-2,4.54-2.27a31.91,31.91,0,0,0,4.7-.52l4.27-1.28a36,36,0,0,0,5.11-2c5.72-3,6.55-3.49,6.89-4.11a1.23,1.23,0,0,1,.85-.68c.8,0,6.79-7,6.79-7.89,0-1.43,1.89-1.89,3.56-.87m58.67,5.81c-3,.46-8.94,4.15-9.71,6.05a12.51,12.51,0,0,1-1.26,2.21c-3.57,4.86-5.33,20.12-3,25.78a15.12,15.12,0,0,1,.76,2.67c.35,2,.76,3.07,2.82,7.39,1,2.06,1.79,3.84,1.79,4a48,48,0,0,0,3.94,6.35c1.84,2.48,6.23,6.87,7.13,7.14a5.91,5.91,0,0,1,1.89,1.39,8.5,8.5,0,0,0,2.19,1.64l2.19,1c2.32,1,3.95,1.63,4.1,1.48a3.36,3.36,0,0,1,1.5.41c4.6,1.94,15.48-1.06,16.77-4.63a8.88,8.88,0,0,1,1.26-1.78c3.81-4.42,6.17-18.54,4-24.14a2.91,2.91,0,0,1-.13-1.17,2.89,2.89,0,0,0-.34-1.41,13.39,13.39,0,0,1-.75-3.11,23.31,23.31,0,0,0-2.16-6.17c-1-2.11-1.83-3.94-1.83-4.07a6.18,6.18,0,0,0-.91-1.44,6.17,6.17,0,0,1-.91-1.44,5.79,5.79,0,0,0-.82-1.38c-.45-.63-1-1.42-1.19-1.75a42.74,42.74,0,0,0-6.72-7.46,12.23,12.23,0,0,1-2.22-2.07c0-.15-.18-.27-.39-.27a4.76,4.76,0,0,1-1.55-.87,22.48,22.48,0,0,0-5.46-2.79,8.38,8.38,0,0,1-1.93-.74c-1.72-.83-6.16-1.2-9.11-.75M58.65,153.51c-.23.23-1.11.44-6.1,1.44-1.51.3-2.9.6-3.1.65-.44.12-3.8,1.61-4.56,2L42,159.14a33.66,33.66,0,0,0-4,2.43,9.53,9.53,0,0,1-1.86,1.21c-.71,0-9.86,8.7-9.86,9.38,0,.26-.14.47-.32.47s-.52.48-.76,1.06a6.62,6.62,0,0,1-1.34,1.91,10.48,10.48,0,0,0-2.32,4.56c0,.27-.14.5-.31.5s-.67.71-1.12,1.58c-.8,1.56-1.1,2.51-2,6.45a15.33,15.33,0,0,1-.9,2.83c-.24.45-.36.82-.27.82s0,.53-.17,1.19A88.07,88.07,0,0,0,16,204c.15,6.45,4.38,20.22,6.85,22.27a1.48,1.48,0,0,1,.54.9c0,1.39,9.5,11.73,11.93,13a12.66,12.66,0,0,1,2.85,1.94,32.76,32.76,0,0,0,9.74,4.64,22.78,22.78,0,0,1,3.21,1.07c3.72,2,18.49,2.45,23.73.74a29.47,29.47,0,0,1,3.65-.92,27.32,27.32,0,0,0,5.11-1.9c4.73-2.23,5.41-2.6,7.26-4a7.52,7.52,0,0,1,2-1.22,11.41,11.41,0,0,0,2.53-2,10.86,10.86,0,0,1,2.56-2c.24,0,.82-.57,1.29-1.27a18.72,18.72,0,0,1,1.67-2.1,64,64,0,0,0,6.49-8.7,37.72,37.72,0,0,1,1.94-4,4.36,4.36,0,0,0,.53-1.79,6.45,6.45,0,0,1,.87-2.37c1-1.69,1.91-5.46,2.23-9,.12-1.3.3-3,.41-3.83.5-3.8-1.28-14.77-3.25-20.07a11.1,11.1,0,0,1-.47-1.54,5.59,5.59,0,0,0-.83-1.52,4.08,4.08,0,0,1-.76-1.61,1.55,1.55,0,0,0-.55-1,1.47,1.47,0,0,1-.55-.88,5,5,0,0,0-1.08-1.69,6.62,6.62,0,0,1-1.09-1.54c-.07-1.36-7.57-8.86-11.38-11.37-1.68-1.11-3.49-2.35-4-2.75a24.68,24.68,0,0,0-5.42-2.58c-.5-.16-1.82-.65-2.92-1.08-1.82-.71-4.66-1.32-10.22-2.18-2.36-.36-11.82-.48-12.15-.14m259.23,2.22c-.9.54-1.81,1.11-2,1.27a32.48,32.48,0,0,1-7.92,4.14,3.07,3.07,0,0,0-1.41.75,1.4,1.4,0,0,1-.87.51c-1.26,0-2.76,7.61-2.79,14.09,0,7.79.63,13.63,1.86,16.39,3.1,6.93,2.69,6.32,8,12.12a9.42,9.42,0,0,0,2.61,2.28,1.48,1.48,0,0,1,1,.71c1.7,2.72,9.17,4.59,17.13,4.27,9.73-.39,11.66-.63,13.26-1.66.49-.31.3-.92-.29-.94-1.57-.06-13.84-10.66-14.46-12.48a4.76,4.76,0,0,0-1.5-1.57,7.37,7.37,0,0,1-2-2.44,6.29,6.29,0,0,0-1.08-1.76,1.42,1.42,0,0,1-.39-1,4.78,4.78,0,0,0-.72-1.89,35.71,35.71,0,0,1-3.24-6.93c-.41-1.2-1-2.88-1.29-3.72a20.33,20.33,0,0,1-.76-2.74c-.11-.66-.36-1.78-.56-2.48a63,63,0,0,1-.72-13.28,16.52,16.52,0,0,0,.06-3.73l-.23-.86-1.64,1M71.53,172c4.24.83,4.86,1,5.84,1.66.5.34,1.82,1.07,2.92,1.64,4.36,2.23,9.13,7.29,11.68,12.43a6.22,6.22,0,0,0,1,1.46,8.86,8.86,0,0,1,.87,2.92,19.67,19.67,0,0,0,.67,2.92c.56,1,.58,8.55,0,12.23-1.61,10.77-12.62,21.55-23.88,23.38-4.22.68-9.39.72-11.63.08a24.11,24.11,0,0,0-3.2-.68c-4.36-.48-14.12-7.77-16.6-12.41-.42-.79-1.18-2.17-1.68-3.07a31.56,31.56,0,0,1-2.8-9.67c0-.4-.07-2-.13-3.65a11.72,11.72,0,0,1,.3-3.83,13.13,13.13,0,0,0,.67-3c.41-3.33,2-7.63,2.79-7.63.19,0,.34-.22.34-.49,0-1.07,6.73-8.64,7.68-8.64a10.79,10.79,0,0,0,2-1.46,7.48,7.48,0,0,1,2.28-1.46,13,13,0,0,0,2.74-1.09c1.92-.94,4.68-1.64,9.17-2.32a35.33,35.33,0,0,1,8.94.64m-10.23,3.87a10.84,10.84,0,0,0-2.81.67,4.28,4.28,0,0,1-1.7.42c-1.06,0-4.74,1.9-6.09,3.15a3.58,3.58,0,0,1-1.28.87,9.84,9.84,0,0,0-2.17,1.8c-4.32,4.26-5.78,6.73-7.81,13.21-.52,1.67-.62,9.07-.12,10a23.07,23.07,0,0,1,1,3.26A15.69,15.69,0,0,0,42,213.43a10.85,10.85,0,0,1,1.06,1.78c0,.68,3.77,5.23,4.33,5.23a7.43,7.43,0,0,1,1.83,1.46,7.22,7.22,0,0,0,1.84,1.46,13.55,13.55,0,0,1,2.46,1.25c4,2.38,11.61,2.92,18.79,1.34,2.9-.64,8.72-4.36,11-7,.75-.88,1.79-2,2.31-2.56a14.12,14.12,0,0,0,2.73-5.24c.17-.6.73-2.31,1.24-3.79,1.13-3.27,1.36-9.79.44-12.28-1.44-3.9-2.09-5.45-2.43-5.79a1.42,1.42,0,0,1-.37-.86c0-.58-1.3-2.47-2.46-3.59a3.07,3.07,0,0,1-.84-1.11c0-.62-5.56-4.61-6.87-5a5.44,5.44,0,0,1-1.67-.69,1.47,1.47,0,0,0-.88-.33,2.08,2.08,0,0,1-1.11-.5c-1.49-1.3-7.15-1.92-12.08-1.32m283.92,72.78a15.28,15.28,0,0,1-2.72.56,19,19,0,0,0-3.27.73c-5.53,2.56-9,4.61-10,5.86a8,8,0,0,1-1.28.88,16.56,16.56,0,0,0-2.92,2.85c-1,1.21-2.07,2.47-2.37,2.79a38.34,38.34,0,0,0-4.71,6.61L316,272.26c-1.15,2-4.73,9.39-4.73,9.76a31.58,31.58,0,0,1-1.07,3.69,35.52,35.52,0,0,0-1.33,5.21,8.27,8.27,0,0,1-.54,2.33c-1.5,1.92-1.75,20.85-.36,27.56,1.06,5.13,1.82,8,2.3,8.8a7.21,7.21,0,0,1,.77,2.1,6,6,0,0,0,1.14,2.31,3.86,3.86,0,0,1,.92,1.64,6.85,6.85,0,0,0,1.1,2.18c.6.89,1.33,2.08,1.63,2.65a16,16,0,0,0,2.19,2.73,9.21,9.21,0,0,1,1.66,2c0,1.05,8,6.22,9.67,6.22a12.53,12.53,0,0,1,1.82.73c3.12,1.42,12.41,1.31,14-.17a2.42,2.42,0,0,1,1.39-.56,1.32,1.32,0,0,0,1-.32,2.42,2.42,0,0,1,1.23-.52c1.71-.34,7.35-3.94,9.72-6.2L361,342a37.84,37.84,0,0,0,5.48-6.73,7.49,7.49,0,0,1,1.45-2.1c.15,0,.28-.25.28-.55s.13-.55.29-.55,1.79-2.88,4.19-8a66.49,66.49,0,0,0,2.44-6.39c.64-2,1.4-4.31,1.69-5.12a10.11,10.11,0,0,0,.52-2.76,3,3,0,0,1,.38-1.66c.94-.94,1.56-14.35,1-21.67-.44-5.78-.91-8.16-2.13-10.85a8,8,0,0,1-.7-2.18c0-.93-1.81-5.55-2.8-7.12a5.78,5.78,0,0,1-.85-1.87,1.49,1.49,0,0,0-.53-1,2.77,2.77,0,0,1-.74-1.1c-.2-.64-1.37-2.08-3.74-4.65a4.78,4.78,0,0,1-1.19-1.76c0-.27-.33-.59-.73-.72a2.23,2.23,0,0,1-1.11-.94c-.21-.39-.57-.71-.8-.71a10.5,10.5,0,0,1-2.47-1.43c-3.61-2.53-14.32-4.93-15.72-3.53m-29.17,8.5c-1.53.56-8.75,4.17-9.87,4.94A29.59,29.59,0,0,1,302.9,264a23.46,23.46,0,0,0-3.45,2.05c-.8.61-2.09,1.57-2.85,2.13-2.93,2.14-11.86,10.91-13,12.8a20.69,20.69,0,0,1-1.94,2.4,15.27,15.27,0,0,0-1.32,1.52c0,.06-.58,1-1.29,2.05-2,3-8.2,16.21-8.2,17.41a5.74,5.74,0,0,1-.43,1.39,7.21,7.21,0,0,0-.48,1.76,49.77,49.77,0,0,1-1.28,6.75c-2,8.13-.64,15.33,2.92,15.33a11.37,11.37,0,0,1,3.1,1.07c1.24.59,3.47,1.48,5,2s3.36,1.24,4.17,1.63a32.42,32.42,0,0,0,3.1,1.27c.9.31,2.59,1,3.75,1.5a12.69,12.69,0,0,0,2.62.94,4.87,4.87,0,0,1,1.54.51c.57.28,1.44.67,1.95.86s1.82.77,2.92,1.29c4.12,1.92,6.58,2.81,7.8,2.81.69,0,1.33.2,1.43.46s.31.32.75-.09.46-2.19-.17-2.19c-.35,0-3.25-5.83-3.25-6.53a3.29,3.29,0,0,0-.55-1.26,32.17,32.17,0,0,1-2.21-6.26,8.77,8.77,0,0,0-.65-2c-1.47-3.28-2.16-20.86-1.14-29.2.11-.9.24-2.14.29-2.74a4.48,4.48,0,0,1,.39-1.58,13.38,13.38,0,0,0,.77-2.55,52.13,52.13,0,0,1,2.52-8.64,17.2,17.2,0,0,0,1.13-2.74c.37-1.1,1-2.85,1.52-3.87a12.66,12.66,0,0,0,.86-2.19,9.93,9.93,0,0,1,1.28-2.13,8.12,8.12,0,0,0,1.28-2.28c0-.26.14-.48.31-.48a11,11,0,0,0,1.88-2.65,15.16,15.16,0,0,1,2.06-2.94,1,1,0,0,0,.49-.67,3.87,3.87,0,0,1,.68-1.35c1.57-2.23,1.15-3.16-1-2.35m-145.79,86c-.53.75-.52.86,0,1.28,1.16.85,1.75.35,1.37-1.17-.29-1.15-.67-1.18-1.42-.11"/></g></svg>